<?xml version="1.0" encoding="utf-8"?>
<!-- Generator: Adobe Illustrator 16.0.4, SVG Export Plug-In . SVG Version: 6.00 Build 0)  -->
<!DOCTYPE svg PUBLIC "-//W3C//DTD SVG 1.1//EN" "http://www.w3.org/Graphics/SVG/1.1/DTD/svg11.dtd">
<svg version="1.1" id="Layer_1" xmlns="http://www.w3.org/2000/svg" xmlns:xlink="http://www.w3.org/1999/xlink" x="0px" y="0px"
	 width="350px" height="200px" viewBox="0 0 350 200" enable-background="new 0 0 350 200" xml:space="preserve">
<g>
	<path fill-rule="evenodd" clip-rule="evenodd" fill="#FFFFFF" d="M271.642,85.454c0,0-1.712,2.772-2.136,3.457
		c-5.598-1.437-13.685-1.234-18.977-0.252c-3.118-0.643-6.445-0.692-9.632-0.111c0.144-0.013-9.533-0.233-9.533-0.233l-6.495-0.151
		c-4.521-0.719-8.565-0.412-12.003-0.066c0,0-6.429,0.547-6.907,0.59c-0.17-0.029-2.936-0.49-2.936-0.49
		c-4.688-0.81-10.01-1.729-15.838-1.611l-0.473,0.011c-0.069,0.009-9.454,1.161-9.454,1.161c-0.107,0.021-0.805,0.216-0.805,0.216
		c-3.512,0.999-8.664,3.823-12.599,7.852c-6.334-5.346-13.9-7.129-20.498-8.137l-1.696-0.259l-1.692,0.318l-8.541,1.611
		c-0.118,0.034-0.896,0.325-0.896,0.325c-2.727,1.037-5.336,2.514-7.79,4.341c-0.574-0.394-1.915-1.309-1.915-1.309
		c-9.921-5.898-23.406-5.448-36.439-5.02c-0.018,0-7.156,0.222-7.156,0.222c-5.401-0.623-15.416-0.768-19.459,0.904
		c0,0-1.869,0.771-1.903,0.791c-8.891-2.669-20.591-2.157-30.026-1.734l-8.625,0.363l-2.956,2.913
		C14.253,91.167,11,94.497,11,94.497l0.233,4.314l2.147,50.147l5.655,2.553c4.896,2.209,10.817,1.91,17.504,1.328l11.641-0.908
		l0.117-9.423c0-0.017-0.092-7.289-0.116-9.253c0.653-0.245,2.637-0.979,3.78-1.398c0.054,1.771,0.547,17.055,0.547,17.055
		l5.701,2.586c6.224,2.823,19.147,1.271,20.599,1.083c0,0.007,21.156,0.455,21.156,0.455l0.392,0.007c0,0,0.619-0.954,0.921-1.406
		c4.396,1.72,10.026,1.646,16.894,1.326l12.225-0.511c0,0,0.018-0.945,0.021-1.164c5.241,2.094,10.874,2.779,16.416,1.815
		c3.816-0.664,7.48-2.079,10.953-4.043c0.043,0.586,0.123,1.698,0.123,1.698l7.159,1.724c9.146,2.211,27.176,3.709,39.622-1.116
		c0.374,0.104,3.18,0.935,3.18,0.935c3.99,1.18,9.021,0.994,14.359,0.801l5.939-0.197l23.758,0.052
		c4.003,0.798,8.918,0.532,14.455,0.134l3.885-0.275c0,0.005,30.415,0.424,30.415,0.424l0.629,0.007c0,0,0.063-0.397,0.078-0.534
		c4.439,0.906,9.47,0.694,13.574,0.487c0.005,0,10.741-0.45,10.741-0.45l2.232-6.893c1.465-4.955,0.841-9.451,0.347-13.065
		c-0.283-2.007-0.57-4.062-0.278-5.12c0.834-2.993,2.468-6.281,4.208-9.769c2.541-5.081,5.417-10.835,6.627-17.438
		c0-0.005,0.156-0.893,0.156-0.893c0.019-0.137-0.108-10.481-0.108-10.481l-0.01-0.705l-32.829-0.106
		c-0.002,0.11-21.661-0.36-21.661-0.36l-0.636-0.014c0,0-0.028,0.235-0.062,0.424c-1.385-0.395-11.763-3.337-11.763-3.337
		L271.642,85.454z"/>
	<path fill-rule="evenodd" clip-rule="evenodd" fill="#FFFFFF" d="M271.642,13.407c0,0-1.712,2.778-2.136,3.459
		c-5.598-1.437-13.685-1.232-18.977-0.255c-3.118-0.642-6.443-0.691-9.632-0.108c0.144-0.009-7.117-0.182-7.117-0.182l-8.911-0.202
		c-4.521-0.723-8.565-0.411-12.003-0.068c0,0-6.423,0.549-6.907,0.591c-0.17-0.026-2.936-0.491-2.936-0.491
		c-4.684-0.811-9.992-1.729-15.838-1.611l-0.473,0.01c-0.069,0.011-9.454,1.161-9.454,1.161c-0.107,0.022-0.805,0.222-0.805,0.222
		c-3.506,0.993-8.664,3.812-12.599,7.852c-6.334-5.347-13.9-7.133-20.498-8.14l-1.696-0.261l-10.232,1.929
		c-0.118,0.034-0.896,0.328-0.896,0.328c-2.727,1.037-5.341,2.514-7.79,4.334c-0.574-0.388-1.915-1.308-1.915-1.308
		c-9.921-5.894-23.406-5.446-36.448-5.013c-0.009,0-7.147,0.219-7.147,0.219c-5.397-0.622-15.416-0.769-19.459,0.906
		c0,0-1.834,0.755-1.903,0.786c-8.891-2.667-20.588-2.156-30.026-1.729l-8.625,0.358l-2.956,2.914
		C14.253,19.119,11,22.451,11,22.451l0.233,4.314L13.38,76.91l5.655,2.55c4.892,2.209,10.817,1.91,17.504,1.332l11.641-0.915
		l0.117-9.418c0-0.014-0.092-7.29-0.116-9.254c0.653-0.245,2.637-0.976,3.78-1.394c0.054,1.766,0.547,17.051,0.547,17.051
		l5.701,2.586c6.238,2.833,19.147,1.27,20.599,1.085c0,0.006,21.156,0.452,21.156,0.452l0.392,0.01c0,0,0.619-0.956,0.921-1.408
		c4.396,1.721,10.026,1.646,16.894,1.328l12.225-0.511c0,0,0.018-0.944,0.021-1.165c5.237,2.095,10.874,2.778,16.416,1.816
		c3.816-0.666,7.48-2.079,10.953-4.042c0.043,0.591,0.123,1.696,0.123,1.696l7.159,1.726c9.146,2.209,27.179,3.702,39.622-1.121
		c0.374,0.111,3.18,0.938,3.18,0.938c3.99,1.179,9.016,0.992,14.359,0.798l5.939-0.193c0.007,0,23.758,0.052,23.758,0.052
		c3.993,0.795,8.918,0.531,14.455,0.128l3.885-0.269c0,0.004,30.415,0.419,30.415,0.419l0.629,0.006c0,0,0.063-0.398,0.078-0.533
		c4.432,0.909,9.47,0.697,13.574,0.491l10.741-0.452l2.232-6.896c1.465-4.947,0.841-9.448,0.347-13.062
		c-0.283-2.002-0.57-4.057-0.278-5.119c0.834-2.991,2.468-6.283,4.208-9.767c2.541-5.08,5.417-10.837,6.627-17.44
		c0-0.007,0.156-0.896,0.156-0.896c0.019-0.135-0.108-10.481-0.108-10.481l-0.01-0.705l-32.829-0.107
		c-0.002,0.113-21.661-0.359-21.661-0.359l-0.636-0.012c0,0-0.028,0.235-0.062,0.422c-1.385-0.385-11.763-3.335-11.763-3.335
		L271.642,13.407z"/>
	<path fill-rule="evenodd" clip-rule="evenodd" fill="#261C02" d="M271.642,85.454c0,0-1.712,2.772-2.136,3.457
		c-5.598-1.437-13.685-1.234-18.977-0.252c-3.118-0.643-6.445-0.692-9.632-0.111c0.144-0.013-9.533-0.233-9.533-0.233l-6.495-0.151
		c-4.521-0.719-8.565-0.412-12.003-0.066c0,0-6.429,0.547-6.907,0.59c-0.17-0.029-2.936-0.49-2.936-0.49
		c-4.688-0.81-10.01-1.729-15.838-1.611l-0.473,0.011c-0.069,0.009-9.454,1.161-9.454,1.161c-0.107,0.021-0.805,0.216-0.805,0.216
		c-3.513,0.999-8.664,3.823-12.599,7.852c-6.335-5.346-13.9-7.129-20.499-8.137l-1.695-0.259l-1.693,0.318l-8.54,1.61
		c-0.118,0.035-0.896,0.326-0.896,0.326c-2.727,1.037-5.336,2.514-7.791,4.341c-0.573-0.394-1.915-1.309-1.915-1.309
		c-9.92-5.898-23.406-5.448-36.438-5.02c-0.018,0-7.157,0.222-7.157,0.222c-5.401-0.623-15.415-0.768-19.458,0.904
		c0,0-1.869,0.771-1.904,0.791c-8.891-2.669-20.591-2.157-30.025-1.735l-8.625,0.364l-2.956,2.915
		c-0.011,0.009-3.265,3.339-3.265,3.339l0.234,4.314l2.147,50.147l5.655,2.553c4.896,2.209,10.816,1.91,17.501,1.328l11.642-0.908
		l0.117-9.423c0-0.017-0.09-7.289-0.115-9.253c0.653-0.245,2.637-0.979,3.78-1.398c0.054,1.771,0.548,17.055,0.548,17.055
		l5.701,2.586c6.223,2.821,19.146,1.271,20.599,1.083c0,0.007,21.155,0.455,21.155,0.455l0.393,0.007c0,0,0.619-0.954,0.92-1.406
		c4.397,1.72,10.027,1.646,16.896,1.326l12.224-0.511c0,0,0.018-0.945,0.021-1.164c5.242,2.094,10.875,2.779,16.416,1.815
		c3.816-0.664,7.48-2.079,10.953-4.043c0.043,0.586,0.125,1.698,0.125,1.698l7.159,1.724c9.146,2.211,27.176,3.709,39.622-1.116
		c0.374,0.105,3.18,0.935,3.18,0.935c3.99,1.18,9.021,0.994,14.357,0.801l5.941-0.197l23.758,0.052
		c4.003,0.798,8.918,0.532,14.455,0.134l3.885-0.278c0,0.008,30.415,0.427,30.415,0.427l0.629,0.007c0,0,0.063-0.397,0.078-0.534
		c4.439,0.906,9.47,0.694,13.574,0.487c0.005,0,10.741-0.45,10.741-0.45l2.232-6.893c1.465-4.955,0.841-9.451,0.347-13.065
		c-0.283-2.007-0.57-4.062-0.278-5.12c0.831-2.993,2.468-6.281,4.208-9.769c2.541-5.081,5.417-10.835,6.627-17.438
		c0-0.005,0.156-0.893,0.156-0.893c0.019-0.137-0.108-10.481-0.108-10.481l-0.01-0.705l-32.829-0.106
		c-0.002,0.11-21.661-0.36-21.661-0.36l-0.636-0.016c0,0-0.028,0.237-0.062,0.425c-1.385-0.395-11.763-3.337-11.763-3.337
		L271.642,85.454z M270.46,90.103c0,0,1.674-2.719,2.114-3.438c0.956,0.277,12.317,3.495,12.317,3.495s0.104-0.747,0.11-0.791
		c1.201,0.026,21.014,0.454,21.014,0.454c0.035-0.099,26.812-0.024,31.441-0.011c0.021,1.222,0.12,9.601,0.12,9.628
		c-0.016,0-0.146,0.764-0.146,0.764c-1.175,6.403-4.004,12.065-6.495,17.056c-1.773,3.549-3.448,6.902-4.308,10.027
		c-0.132,0.45-0.172,0.986-0.172,1.585c0,1.187,0.198,2.616,0.394,4.1c0.266,1.889,0.558,4.021,0.558,6.307
		c0,1.953-0.207,4.018-0.84,6.156c0.007-0.019-1.456,4.477-1.927,5.921c-0.899,0.04-9.743,0.409-9.743,0.409
		c-4.25,0.22-9.542,0.488-13.955-0.574l-0.768-0.182l-0.108,0.789c-1.216-0.023-29.826-0.407-29.826-0.407
		c-0.055,0-3.959,0.264-3.959,0.264c-5.23,0.384-10.254,0.657-14.21-0.118c-0.144-0.014-23.918-0.063-23.918-0.063
		c-0.025,0-5.981,0.193-5.981,0.193c-5.205,0.187-10.13,0.372-13.895-0.739l-3.619-1.069l-0.236,0.09
		c-12.146,4.818-29.988,3.325-39.019,1.146c0,0-4.623-1.118-6.142-1.486c-0.038-0.612-0.2-2.878-0.2-2.878l-1.01,0.612
		c-3.597,2.188-7.46,3.65-11.469,4.348c-5.59,0.979-11.33,0.273-16.58-2.027l-0.988-0.438c0,0-0.021,1.47-0.031,1.854
		c-1.193,0.047-10.878,0.452-10.878,0.452c-6.982,0.323-12.653,0.427-16.842-1.41l-0.558-0.25c0,0-0.85,1.312-1.115,1.729
		c-0.772-0.021-20.857-0.442-20.857-0.442c-1.517,0.181-14.064,1.697-19.934-0.966c0,0-4.19-1.898-4.885-2.216
		c-0.025-0.848-0.584-18.15-0.584-18.15l-6.565,2.426l-0.024,0.511l0.117,9.75c0,0-0.081,6.111-0.099,8.087
		c-1.156,0.097-10.341,0.812-10.341,0.812c-6.48,0.561-12.216,0.857-16.794-1.203c0,0-3.655-1.648-4.854-2.188
		c-0.033-0.869-2.105-49.279-2.105-49.279c0-0.003-0.151-2.771-0.2-3.688c0.378-0.389,2.813-2.878,2.813-2.878
		s1.94-1.918,2.555-2.521c0.518-0.021,8.074-0.333,8.074-0.333c9.45-0.428,21.208-0.963,29.9,1.757l0.252,0.079l0.337-0.202
		l1.928-0.798c3.644-1.512,13.284-1.436,18.848-0.803c0.1,0.003,7.244-0.219,7.244-0.219c12.85-0.426,26.12-0.864,35.674,4.819
		l2.637,1.797l0.448-0.292c2.463-1.893,5.113-3.382,7.859-4.426l0.777-0.292c0.006,0.01,8.418-1.575,8.418-1.575
		s1.157-0.217,1.455-0.273c0.204,0.03,1.45,0.221,1.45,0.221c6.574,1.002,14.125,2.763,20.272,8.195l0.529,0.467l0.476-0.512
		c3.789-4.094,8.98-6.921,12.433-7.907l0.695-0.194c-0.102,0.021,9.226-1.125,9.272-1.13l0.404-0.007
		c5.688-0.116,10.934,0.791,15.577,1.59c0,0.002,3.101,0.521,3.101,0.521l7.099-0.605c3.358-0.337,7.296-0.638,11.74,0.063
		c0.096,0.011,6.599,0.159,6.599,0.159l9.677,0.223c3.21-0.574,6.403-0.535,9.389,0.104l0.142,0.03l0.146-0.028
		c5.209-0.979,13.329-1.201,18.765,0.274c-0.008-0.002,0.188,0.052,0.188,0.052l0.522,0.149L270.46,90.103z"/>
	<path fill-rule="evenodd" clip-rule="evenodd" fill="#261C02" d="M271.642,13.407c0,0-1.712,2.778-2.136,3.459
		c-5.598-1.437-13.685-1.232-18.977-0.255c-3.118-0.642-6.445-0.691-9.632-0.108c0.144-0.009-7.117-0.182-7.117-0.182l-8.911-0.204
		c-4.521-0.721-8.565-0.41-12.003-0.066c0,0-6.423,0.549-6.907,0.591c-0.17-0.026-2.936-0.491-2.936-0.491
		c-4.684-0.812-9.992-1.729-15.838-1.611l-0.473,0.01c-0.069,0.011-9.454,1.161-9.454,1.161c-0.107,0.022-0.805,0.222-0.805,0.222
		c-3.506,0.993-8.664,3.812-12.599,7.852c-6.335-5.347-13.9-7.133-20.499-8.14l-1.695-0.261l-10.233,1.929
		c-0.118,0.034-0.896,0.328-0.896,0.328c-2.727,1.037-5.342,2.514-7.791,4.334c-0.573-0.388-1.915-1.308-1.915-1.308
		c-9.92-5.894-23.406-5.446-36.448-5.013c-0.008,0-7.147,0.219-7.147,0.219c-5.397-0.622-15.415-0.769-19.458,0.906
		c0,0-1.835,0.755-1.904,0.786c-8.891-2.668-20.587-2.156-30.025-1.729l-8.625,0.356l-2.956,2.916
		c-0.011,0.011-3.265,3.344-3.265,3.344l0.234,4.314L13.38,76.91l5.655,2.55c4.892,2.209,10.816,1.91,17.501,1.332l11.642-0.915
		l0.117-9.418c0-0.014-0.09-7.29-0.115-9.254c0.653-0.245,2.637-0.976,3.78-1.394c0.054,1.767,0.548,17.051,0.548,17.051
		l5.701,2.586c6.238,2.833,19.146,1.27,20.599,1.085c0,0.006,21.155,0.452,21.155,0.452l0.393,0.01c0,0,0.619-0.956,0.92-1.408
		c4.397,1.721,10.027,1.646,16.896,1.328l12.224-0.511c0,0,0.018-0.944,0.021-1.165c5.238,2.095,10.875,2.778,16.416,1.816
		c3.816-0.666,7.48-2.079,10.953-4.042c0.043,0.591,0.125,1.696,0.125,1.696l7.159,1.726c9.146,2.209,27.179,3.702,39.622-1.121
		c0.374,0.111,3.18,0.938,3.18,0.938c3.99,1.176,9.016,0.992,14.357,0.798l5.941-0.193c0.007,0,23.758,0.052,23.758,0.052
		c3.993,0.795,8.918,0.531,14.455,0.128l3.885-0.269c0,0.004,30.415,0.419,30.415,0.419l0.629,0.006c0,0,0.063-0.398,0.078-0.533
		c4.432,0.909,9.47,0.697,13.574,0.491l10.741-0.452l2.232-6.896c1.465-4.947,0.841-9.448,0.347-13.062
		c-0.283-2.002-0.57-4.057-0.278-5.119c0.831-2.991,2.468-6.284,4.208-9.767c2.541-5.08,5.417-10.837,6.627-17.44
		c0-0.007,0.156-0.896,0.156-0.896c0.019-0.135-0.108-10.481-0.108-10.481l-0.01-0.705l-32.829-0.107
		c-0.002,0.113-21.661-0.36-21.661-0.36l-0.636-0.01c0,0-0.028,0.235-0.062,0.422c-1.385-0.387-11.763-3.335-11.763-3.335
		L271.642,13.407z M270.46,18.051c0,0,1.674-2.715,2.114-3.433c0.956,0.272,12.317,3.491,12.317,3.491s0.104-0.745,0.11-0.791
		c1.201,0.021,21.014,0.455,21.014,0.455c0.035-0.099,26.808-0.021,31.441-0.01c0.021,1.227,0.12,9.603,0.12,9.625
		c-0.016,0.004-0.146,0.766-0.146,0.766c-1.175,6.407-4.004,12.065-6.495,17.059c-1.773,3.548-3.448,6.898-4.308,10.026
		c-0.125,0.45-0.172,0.985-0.172,1.583c0,1.188,0.198,2.617,0.394,4.105c0.266,1.885,0.558,4.015,0.558,6.304
		c0,1.951-0.207,4.02-0.84,6.154c0.007-0.017-1.456,4.479-1.927,5.923c-0.899,0.04-9.743,0.412-9.743,0.412
		c-4.25,0.216-9.552,0.481-13.955-0.576l-0.768-0.185l-0.108,0.787c-1.216-0.019-29.826-0.411-29.826-0.411
		c-0.064,0.007-3.959,0.274-3.959,0.274c-5.436,0.393-10.249,0.655-14.21-0.12c-0.144-0.014-23.918-0.063-23.918-0.063
		c-0.025,0-5.981,0.19-5.981,0.19c-5.212,0.196-10.133,0.374-13.895-0.737l-3.619-1.067l-0.236,0.092
		c-12.142,4.812-29.981,3.316-39.019,1.14c0,0-4.623-1.119-6.142-1.481c-0.038-0.615-0.2-2.88-0.2-2.88l-1.01,0.608
		c-3.597,2.188-7.46,3.655-11.469,4.353c-5.595,0.976-11.335,0.27-16.58-2.034l-0.988-0.438c0,0-0.021,1.47-0.031,1.856
		c-1.193,0.052-10.878,0.455-10.878,0.455c-6.982,0.33-12.653,0.428-16.842-1.413l-0.558-0.245c0,0-0.85,1.311-1.115,1.723
		c-0.772-0.015-20.857-0.441-20.857-0.441c-5.228,0.667-15.163,1.202-19.934-0.961c0,0-3.682-1.673-4.885-2.218
		c-0.025-0.848-0.584-18.148-0.584-18.148L46.766,60.2l-0.024,0.516l0.117,9.744c0,0-0.081,6.116-0.099,8.091
		c-1.156,0.091-10.341,0.812-10.341,0.812c-6.487,0.56-12.219,0.857-16.794-1.208c0,0-3.655-1.648-4.854-2.185
		c-0.033-0.869-2.105-49.275-2.105-49.275c0-0.006-0.151-2.776-0.2-3.688c0.378-0.392,2.813-2.881,2.813-2.881
		s1.94-1.914,2.555-2.517c0.518-0.024,8.074-0.335,8.074-0.335c9.45-0.425,21.208-0.958,29.9,1.756l0.252,0.08l0.337-0.204
		l1.928-0.798c3.644-1.512,13.284-1.435,18.848-0.801c0.1,0,7.244-0.214,7.244-0.214c12.843-0.428,26.12-0.871,35.674,4.812
		l2.637,1.799l0.448-0.294c2.463-1.893,5.113-3.378,7.859-4.424c0,0,0.777-0.291,0.777-0.293c0.006,0.012,8.418-1.579,8.418-1.579
		s1.245-0.233,1.455-0.264c0.204,0.027,1.45,0.217,1.45,0.217c6.574,1.002,14.125,2.763,20.272,8.199l0.529,0.461l0.476-0.511
		c3.789-4.094,8.98-6.918,12.433-7.901l0.695-0.198c-0.102,0.02,9.226-1.125,9.272-1.128l0.404-0.01
		c5.703-0.119,10.94,0.794,15.577,1.59l3.101,0.523l7.099-0.609c3.358-0.336,7.296-0.633,11.74,0.066
		c0.096,0.011,9.003,0.214,9.003,0.214l7.272,0.169c3.21-0.578,6.403-0.536,9.389,0.105l0.142,0.027l0.146-0.025
		c5.209-0.984,13.329-1.205,18.765,0.27l0.711,0.197L270.46,18.051z"/>
	<path fill-rule="evenodd" clip-rule="evenodd" fill="#EE4034" d="M187.396,96.232c6.229-0.134,12.178,1.234,17.573,2.068
		c-0.647,3.198-1.291,6.398-1.936,9.597c-3.643,0.793-7.542-0.787-9.085,2.611c-1.742,3.382,1.668,5.734,3.269,7.254
		c3.901,3.686,13.287,7.151,11.584,16.044c-2.338,12.237-29.421,11.342-41.372,8.457c-0.365-5.084-0.729-10.169-1.089-15.251
		c4.352,1.88,12.333,4.244,17.102,0.936c1.841-7.64-11.354-10.946-14.547-16.009c-4.166-6.626,6.059-13.495,10.31-14.703
		C181.934,96.901,184.662,96.566,187.396,96.232"/>
	<path fill-rule="evenodd" clip-rule="evenodd" fill="#EE4034" d="M187.386,95.516l-0.076,0.004l-8.189,1.006
		c-3.018,0.846-9.527,4.604-11.42,9.544c-0.34,0.892-0.508,1.769-0.508,2.624c0,1.258,0.362,2.468,1.096,3.629
		c1.261,2.002,3.845,3.66,6.574,5.417c3.953,2.536,8.031,5.146,8.031,8.805c0,0.3-0.057,0.607-0.115,0.926
		c-5.049,3.224-13.613-0.017-16.162-1.118l-1.073-0.469l1.2,16.956l0.518,0.122c9.885,2.388,28.62,3.273,37.438-2.407
		c2.679-1.724,4.298-3.949,4.812-6.615c1.387-7.248-4.057-11.059-8.422-14.12c-1.283-0.899-2.493-1.745-3.37-2.581l-0.67-0.601
		c-2.049-1.813-3.639-3.504-2.46-5.799c0.83-1.831,2.34-1.931,4.932-1.949c1.187-0.008,2.416-0.02,3.668-0.294l0.453-0.097
		l2.175-10.782l-4.388-0.731C196.937,96.212,192.311,95.41,187.386,95.516 M201.188,98.399c0,0,1.986,0.329,2.934,0.487
		c-0.24,1.171-1.518,7.477-1.688,8.34c-0.966,0.164-1.959,0.219-2.924,0.226c-2.453,0.019-4.972,0.04-6.22,2.755
		c-0.386,0.765-0.546,1.481-0.546,2.155c0,2.367,2.027,4.168,3.353,5.346l0.632,0.572c0.957,0.907,2.209,1.785,3.529,2.713
		c3.794,2.654,8.034,5.617,8.034,10.741c0,0.607-0.069,1.253-0.197,1.937c-0.433,2.263-1.834,4.17-4.171,5.68
		c-7.967,5.129-25.698,4.649-35.823,2.32c-0.003-0.1-0.826-11.642-0.968-13.572c3.56,1.408,11.635,3.966,16.719,0.44l0.223-0.155
		l0.057-0.269c0.138-0.556,0.2-1.093,0.2-1.608c0-4.399-4.58-7.351-8.686-9.977c-2.604-1.667-5.055-3.242-6.147-4.971
		c-0.575-0.922-0.862-1.883-0.862-2.878c0-0.686,0.133-1.388,0.402-2.099c1.635-4.27,7.525-7.847,10.359-8.658
		c0.033,0.004,7.821-0.952,8.044-0.98C192.217,96.85,196.772,97.637,201.188,98.399"/>
	<path fill-rule="evenodd" clip-rule="evenodd" fill="#EE4034" d="M267.926,142.459c-4.196,0.24-12.491,1.166-15.727-0.275
		c-0.102-14.655-0.19-29.317-0.287-43.973c4.314-0.893,11.362-1.015,15.268,0.047c0.132,4.025,0.247,8.049,0.364,12.073
		c0.156-0.079,0.307-0.155,0.457-0.234c2.836-4.587,5.666-9.182,8.499-13.771c2.059,0.585,4.114,1.168,6.175,1.752
		c2.48,0.737,7.701,0.893,8.469,3.315c-2.564,4.026-11.252,13.127-12.103,17.236c2.15,2.487,13.808,21.683,13.497,23.995
		c-6.005-0.082-12.001-0.165-18.007-0.24c-2.181-4.844-4.366-9.677-6.559-14.512h-0.219
		C267.804,132.735,267.86,137.601,267.926,142.459"/>
	<path fill-rule="evenodd" clip-rule="evenodd" fill="#EE4034" d="M275.893,95.948c0,0-6.467,10.475-7.682,12.448
		c-0.055-1.778-0.327-10.691-0.327-10.691l-0.521-0.138c-4.101-1.118-11.377-0.932-15.593-0.062l-0.582,0.122l0.297,45.025
		l0.424,0.188c2.876,1.281,9.173,0.824,13.774,0.487l2.958-0.2v-0.676c0,0-0.102-7.934-0.134-11.669
		c1.585,3.514,5.555,12.31,5.555,12.31l19.095,0.264l0.087-0.634c0.008-0.044,0.008-0.092,0.008-0.139
		c0-3.162-11.031-20.979-13.414-24.094c0.718-2.576,4.49-7.245,7.571-11.038c1.752-2.182,3.431-4.24,4.34-5.673l0.179-0.28
		l-0.105-0.318c-0.692-2.209-3.857-2.788-6.66-3.304l-2.284-0.487c-0.012-0.008-6.71-1.901-6.71-1.901L275.893,95.948z
		 M267.891,110.968l0.617-0.328l0.105-0.168c0,0,7.76-12.578,8.217-13.305c0.866,0.248,5.647,1.598,5.647,1.598l2.428,0.525
		c2.037,0.372,4.68,0.899,5.365,2.104c-0.904,1.347-2.391,3.188-3.98,5.154c-3.452,4.258-7.366,9.086-7.953,11.936l-0.07,0.346
		l0.23,0.267c2.174,2.518,11.997,18.943,13.202,22.799c-1.49-0.017-15.875-0.212-16.701-0.229
		c-0.36-0.782-6.563-14.517-6.563-14.517l-1.392,0.021l-0.005,0.713c0,0,0.142,12.673,0.157,13.904
		c-0.673,0.05-1.62,0.115-1.62,0.115c-4.001,0.283-9.907,0.702-12.665-0.24c-0.007-0.998-0.277-41.94-0.277-42.831
		c3.954-0.725,10.046-0.858,13.845,0.031c0.021,0.951,0.398,12.636,0.398,12.636L267.891,110.968z"/>
	<path fill-rule="evenodd" clip-rule="evenodd" fill="#EE4034" d="M232.184,126.235c-2.277,0.033-4.552,0.055-6.832,0.083
		c-0.089,5.397-0.186,10.793-0.269,16.184c-4.95,0.113-11.329,0.607-14.362-0.287c-0.246-14.731-0.495-29.47-0.744-44.197
		c5.171-0.272,9.764-1.444,15.5,0.045c-0.012,5.544-0.021,11.085-0.03,16.634c2.199-0.023,4.396-0.047,6.604-0.075
		c0.089-5.546,0.177-11.093,0.254-16.64c2.212,0.056,4.416,0.104,6.62,0.152c-0.229,0.456-0.447,0.913-0.671,1.375
		c0.077,0,0.15-0.005,0.226-0.005c2.589-1.547,6.962-2.377,10.925-1.265c-0.207,14.733-0.412,29.476-0.621,44.213
		c-5.466-0.012-10.941-0.025-16.405-0.035C232.304,137.024,232.25,131.634,232.184,126.235"/>
	<path fill-rule="evenodd" clip-rule="evenodd" fill="#EE4034" d="M213.798,96.973l-4.521,0.381l-0.01,0.672l0.75,44.726
		l0.505,0.153c2.516,0.742,7.017,0.577,11.373,0.415l3.891-0.12l0.019-0.688c0,0,0.229-14.207,0.252-15.479
		c1.011-0.012,4.776-0.065,5.422-0.067c0.017,1.312,0.186,16.167,0.186,16.167l17.823,0.04l0.647-45.478l-0.532-0.148
		c-3.552-0.992-7.228-0.49-9.86,0.561c0.139-0.3,0.315-0.66,0.315-0.66l-8.452-0.197c0,0-0.242,15.438-0.257,16.664
		c-0.801,0.007-4.236,0.052-5.19,0.062c0-1.185,0.035-16.464,0.035-16.464l-0.534-0.139
		C221.269,96.229,217.475,96.605,213.798,96.973 M213.943,98.402c3.548-0.349,6.913-0.657,10.808,0.254
		c0,1.043-0.032,16.77-0.032,16.77l8.037-0.096c0,0,0.24-15.524,0.264-16.611c1.048,0.022,4.524,0.102,4.765,0.108
		c-0.09,0.183-0.683,1.403-0.683,1.403l1.577-0.011l0.167-0.099c2.144-1.282,6.071-2.136,9.835-1.263
		c-0.021,1.213-0.586,41.625-0.607,42.876c-1.239-0.01-13.751-0.031-14.987-0.033c-0.021-1.293-0.188-16.188-0.188-16.188
		l-8.254,0.099c0,0-0.255,15.595-0.267,16.195c-0.853,0.024-2.531,0.078-2.531,0.078c-3.809,0.142-8.012,0.271-10.408-0.273
		c-0.023-1.128-0.71-41.677-0.729-42.937C211.646,98.598,213.943,98.402,213.943,98.402"/>
	<path fill-rule="evenodd" clip-rule="evenodd" fill="#EE4034" d="M292.468,97.735c4.566,0.099,9.118,0.198,13.678,0.297
		c2.927,2.385,2.685,8.917,4.922,12.018c0.073,0,0.155,0,0.229-0.002c0.784-4.034,1.568-8.07,2.366-12.105
		c5.085,0.017,10.181,0.033,15.271,0.045v0.233c-1.725,9.408-8.198,17.545-10.626,26.331c-1.698,6.095,1.682,12.268-0.023,18.002
		c-4.93,0.11-11.575,0.876-15.723-0.269c0.227-6.54,0.45-13.077,0.679-19.61C301.569,117.788,291.876,101.85,292.468,97.735"/>
	<path fill-rule="evenodd" clip-rule="evenodd" fill="#EE4034" d="M291.754,97.636c-0.017,0.152-0.026,0.318-0.026,0.498
		c0,2.873,2.857,8.676,6.839,16.428c1.729,3.358,3.34,6.517,3.952,8.238c-0.012,0.292-0.702,20.024-0.702,20.024l0.554,0.151
		c3.257,0.899,7.977,0.661,12.141,0.454l4.302-0.188l0.16-0.487c0.891-3.005,0.45-6.116,0.04-9.126
		c-0.407-2.935-0.831-5.968-0.014-8.888c1.066-3.867,2.911-7.55,4.854-11.452c2.364-4.738,4.813-9.646,5.786-14.936l0.012-0.074
		l-0.021-1.014l-0.697,0.006l-15.863-0.047c0,0-1.953,10.019-2.129,10.898c-0.469-1.127-0.853-2.396-1.181-3.72
		c-0.666-2.68-1.349-5.444-3.167-6.927l-0.188-0.157l-14.561-0.315L291.754,97.636z M303.955,122.698l0.005-0.132l-0.04-0.127
		c-0.617-1.792-2.221-4.92-4.077-8.53c-2.75-5.353-6.412-12.512-6.643-15.441c1.305,0.028,12.066,0.261,12.622,0.273
		c1.338,1.229,1.96,3.641,2.541,6.003c0.514,2.083,1.051,4.238,2.122,5.728l0.222,0.306l1.196-0.03l0.099-0.564
		c0,0,2.049-10.509,2.249-11.521c1.008,0.009,12.524,0.04,13.841,0.045c-0.978,4.785-3.276,9.438-5.521,13.944
		c-1.898,3.793-3.855,7.707-4.964,11.708c-0.375,1.359-0.514,2.726-0.514,4.074c0,1.82,0.252,3.627,0.494,5.396
		c0.248,1.724,0.476,3.392,0.476,5.014c0,1.027-0.155,2.028-0.402,3.017c-0.857,0.036-3.229,0.137-3.229,0.137
		c-3.832,0.191-8.108,0.377-11.14-0.312C303.338,140.51,303.955,122.698,303.955,122.698"/>
	<path fill-rule="evenodd" clip-rule="evenodd" fill="#EE4034" d="M61.625,97.695c-0.917,1.013-0.47,5.002-0.374,6.844
		c-2.717-1.757-4.246-4.452-7.809-5.607c-8.592-2.77-22.768-1.517-31.925-1.218c-0.074,0.075-0.149,0.152-0.221,0.231
		c0.625,14.646,1.254,29.301,1.88,43.949c3.59,1.625,11.341,0.492,15.047,0.28c-0.071-5.614-0.136-11.238-0.202-16.855
		c11.676-3.066,16.283-5.124,23.092-12.804c0.076-0.153,0.149-0.307,0.226-0.459c0.907,2.091,0.084,5.433,0.316,7.745
		c0.237,7.369,0.482,14.735,0.714,22.093c2.706,1.227,12.193,0.716,15.045,0.28c0.133-14.809,0.262-29.624,0.393-44.438
		C74.902,96.973,63.487,96.929,61.625,97.695 M37.916,116.208c-0.043-3.571-0.081-7.141-0.124-10.713
		c3.439-0.145,5.898,0.208,7.544,2.423C46.45,112.709,42.21,116.078,37.916,116.208"/>
	<path fill="#EE4034" d="M61.348,97.035l-0.146,0.06l-0.106,0.12c-0.583,0.636-0.759,1.867-0.759,3.427
		c0,0.694,0.057,1.5,0.106,2.308c-0.461-0.385-0.951-0.737-1.409-1.163c-1.471-1.354-2.988-2.763-5.377-3.537
		c-7.317-2.361-18.445-1.857-27.383-1.448l-5.062,0.209l-0.21,0.212l-0.435,0.436l0.009,0.316l1.902,44.398l0.404,0.182
		c3.064,1.382,8.727,0.895,12.856,0.539l3.195-0.247l0.007-0.674c0,0-0.186-15.27-0.193-16.311
		c11.025-2.925,15.865-5.177,22.249-12.166c0.036,0.362,0.065,0.732,0.065,1.128c0,0.657-0.041,1.34-0.083,2.019l-0.035,3.035
		c-0.001-0.049,0.25,7.753,0.25,7.753l0.476,14.735l0.408,0.188c2.909,1.318,12.619,0.766,15.441,0.334l0.608-0.097l0.404-45.604
		l-0.539-0.143C75.112,96.289,63.501,96.148,61.348,97.035 M77.081,98.341c-0.003,1.17-0.368,41.987-0.375,43.195
		c-3.318,0.412-10.936,0.711-13.635-0.172c-0.031-0.956-0.695-21.591-0.695-21.601c0-0.247,0.035-2.837,0.035-2.837
		c0.043-0.702,0.08-1.413,0.08-2.108c0-1.095-0.105-2.147-0.489-3.045l-0.626-1.438c0,0-0.823,1.707-0.853,1.77
		c-6.613,7.429-11.028,9.461-22.681,12.527l-0.543,0.139c0,0,0.186,15.506,0.196,16.744c-0.731,0.057-1.875,0.148-1.875,0.148
		c-3.602,0.313-8.915,0.737-11.747-0.317c-0.043-1.006-1.798-41.976-1.84-42.937c0.792-0.033,4.307-0.182,4.307-0.182
		c8.827-0.396,19.811-0.893,26.875,1.387c2.092,0.678,3.428,1.915,4.844,3.227c0.859,0.794,1.743,1.613,2.809,2.304l1.194,0.775
		l-0.154-2.353c-0.048-0.703-0.129-1.873-0.129-2.947c0-1.026,0.09-1.919,0.337-2.306C64.12,97.707,73.833,97.737,77.081,98.341"/>
	<path fill="#EE4034" d="M37.761,104.781l-0.697,0.031l0.144,12.133l0.731-0.021c2.713-0.082,5.346-1.363,6.875-3.342
		c1.293-1.683,1.714-3.699,1.223-5.826l-0.034-0.146l-0.087-0.12C44.089,105.025,41.332,104.626,37.761,104.781 M44.659,108.243
		c0.082,0.405,0.143,0.805,0.143,1.198c0,1.183-0.382,2.295-1.131,3.268c-1.132,1.465-3.021,2.435-5.049,2.682
		c-0.013-1.285-0.095-8.054-0.105-9.191C41.344,106.132,43.302,106.52,44.659,108.243"/>
	<path fill-rule="evenodd" clip-rule="evenodd" fill="#EE4034" d="M120.371,112.732c2.817-5.038-1.176-9.691-4.703-11.789
		c-8.425-5.016-22.996-3.778-35.818-3.456c0.404,14.88,0.809,29.766,1.211,44.647c4.629,0.101,9.268,0.2,13.9,0.292
		c0.148-0.229,0.293-0.457,0.446-0.686c0.02-4.938,0.045-9.875,0.06-14.811c1.422,0.589,8.129,12.623,8.832,14.709
		c2.85,1.628,11.319,0.871,16.188,0.721c0.018-3.686-9.586-16.577-11.642-21.059C112.306,117.848,117.87,117.195,120.371,112.732
		 M96.033,117.124c-0.225,0.007-0.454,0.007-0.68,0.007c0.03-3.726,0.055-7.447,0.1-11.172
		C106.607,105.37,103.491,114.461,96.033,117.124"/>
	<path fill="#EE4034" d="M84.672,96.619l-5.557,0.172l0.018,0.714l1.226,45.336l14.988,0.318l0.782-1.196
		c0,0,0.044-11.75,0.047-13.2c2.227,3.085,6.838,11.315,7.44,13.104l0.09,0.257l0.236,0.136c2.544,1.461,8.792,1.166,13.818,0.933
		l3.433-0.146c0,0,0.011-0.697,0.011-0.699c0-2.36-3.017-7.271-7.268-13.939c-1.739-2.721-3.347-5.262-4.182-6.912
		c1.307-1.178,2.846-2.044,4.502-2.911c2.549-1.34,5.18-2.725,6.74-5.499c0.72-1.284,1.034-2.571,1.034-3.819
		c0-3.664-2.729-6.997-5.991-8.942C108.474,95.825,96.372,96.232,84.672,96.619 M84.715,98.054
		c11.498-0.383,23.386-0.777,30.586,3.506c2.268,1.347,5.313,4.192,5.313,7.659c0,1.011-0.258,2.073-0.871,3.167
		c-1.346,2.402-3.682,3.629-6.154,4.927c-1.83,0.963-3.722,1.957-5.255,3.483l-0.35,0.351l0.206,0.452
		c0.781,1.695,2.516,4.423,4.534,7.581c2.87,4.495,6.342,9.962,6.925,12.493c-0.812,0.033-1.952,0.085-1.952,0.085
		c-4.485,0.207-10.553,0.48-12.866-0.679c-0.971-2.343-7.306-14.066-9.088-14.811l-0.991-0.419c0,0-0.057,15.274-0.057,15.677
		c-0.05,0.071-0.057,0.085-0.122,0.177c-0.64-0.012-11.625-0.245-12.815-0.272c-0.039-1.314-1.142-42.057-1.169-43.249
		C81.629,98.149,84.715,98.054,84.715,98.054"/>
	<path fill="#EE4034" d="M95.408,105.25l-0.668,0.032l-0.114,12.572l1.543-0.012l0.106-0.045c4.575-1.632,7.759-5.585,7.112-8.807
		C103.142,107.746,101.865,104.904,95.408,105.25 M101.98,109.272c0.042,0.172,0.054,0.349,0.054,0.533
		c0,2.131-2.277,5.069-5.958,6.501c0.003-0.998,0.074-8.511,0.081-9.646C99.524,106.602,101.634,107.537,101.98,109.272"/>
	<path fill-rule="evenodd" clip-rule="evenodd" fill="#EE4034" d="M162.252,109.059c-4.223-7.423-10.245-10.287-20.418-11.844
		c-2.575,0.488-5.155,0.973-7.728,1.458c-5.871,2.232-11.188,7.467-13.292,13.374c-5.571,15.682,7.8,33.575,24.286,30.707
		C158.776,140.366,171.256,124.849,162.252,109.059 M144.438,125.216c-6.555,1.7-12.115-4.947-10.601-10.814
		c1.007-3.958,3.707-5.08,7.21-6.695C152.208,108.031,155.497,122.348,144.438,125.216"/>
	<path fill="#EE4034" d="M141.697,96.512l-7.727,1.458c-6.304,2.382-11.685,7.8-13.833,13.837
		c-2.821,7.948-1.046,17.074,4.647,23.816c5.253,6.222,12.897,9.149,20.443,7.837c7.927-1.382,15.269-6.987,18.699-14.278
		c3.1-6.582,2.732-13.852-1.044-20.481c-4.688-8.206-11.486-10.753-20.938-12.194l-0.123-0.021L141.697,96.512z M140.624,98.174
		c0,0,1.004-0.188,1.215-0.229c10.587,1.631,15.958,4.749,19.79,11.464c3.535,6.217,3.898,13.014,1.001,19.158
		c-3.242,6.884-10.166,12.175-17.652,13.478c-7.037,1.227-14.175-1.519-19.096-7.35c-3.681-4.362-5.63-9.773-5.63-15.162
		c0-2.454,0.405-4.903,1.238-7.245c2.01-5.658,7.06-10.737,12.866-12.945C134.409,99.347,140.624,98.174,140.624,98.174"/>
	<path fill="#EE4034" d="M140.748,107.059l-0.33,0.151c-3.34,1.53-6.216,2.852-7.284,7.016c-0.812,3.179,0.233,6.699,2.73,9.198
		c2.405,2.402,5.595,3.302,8.755,2.487h0.002c4.95-1.289,7.815-5.083,7.3-9.668c-0.506-4.458-4.393-9.064-10.854-9.253l-0.17-0.004
		L140.748,107.059z M136.882,122.406c-1.666-1.658-2.584-3.841-2.584-6c0-0.612,0.073-1.228,0.233-1.825
		c0.885-3.502,3.235-4.576,6.482-6.066c0,0,0.077-0.038,0.155-0.071c5.553,0.226,8.893,4.154,9.323,7.96
		c0.035,0.28,0.054,0.567,0.054,0.851c0,2.866-1.628,6.062-6.285,7.268C141.606,125.211,138.916,124.441,136.882,122.406"/>
	<path fill-rule="evenodd" clip-rule="evenodd" fill="#EE4034" d="M187.396,24.186c6.229-0.132,12.178,1.232,17.573,2.068
		c-0.647,3.195-1.291,6.402-1.936,9.593c-3.643,0.795-7.542-0.785-9.085,2.613c-1.742,3.389,1.668,5.735,3.269,7.257
		c3.901,3.686,13.287,7.149,11.584,16.046c-2.338,12.225-29.421,11.345-41.372,8.455c-0.365-5.085-0.729-10.17-1.089-15.251
		c4.352,1.876,12.333,4.24,17.102,0.934c1.841-7.635-11.354-10.943-14.547-16.009c-4.166-6.621,6.059-13.494,10.31-14.701
		C181.934,24.849,184.662,24.517,187.396,24.186"/>
	<path fill-rule="evenodd" clip-rule="evenodd" fill="#EE4034" d="M187.386,23.467l-0.078,0.003l-8.188,1.004
		c-3.018,0.851-9.53,4.611-11.421,9.551c-0.339,0.886-0.508,1.768-0.508,2.62c0,1.256,0.364,2.469,1.098,3.629
		c1.26,2,3.845,3.661,6.573,5.416c3.953,2.538,8.031,5.147,8.031,8.805c0,0.3-0.058,0.615-0.115,0.929
		c-5.049,3.22-13.613-0.019-16.162-1.119l-1.074-0.471l1.201,16.956l0.518,0.121c9.881,2.393,28.616,3.276,37.438-2.4
		c2.679-1.729,4.298-3.955,4.812-6.617c1.387-7.258-4.057-11.065-8.422-14.124c-1.282-0.897-2.493-1.744-3.37-2.576l-0.67-0.605
		c-2.049-1.814-3.639-3.501-2.46-5.801c0.83-1.829,2.34-1.926,4.932-1.947c1.187-0.011,2.416-0.02,3.668-0.293l0.453-0.099
		l2.175-10.782l-4.374-0.729C196.941,24.159,192.311,23.363,187.386,23.467 M201.198,26.351c0,0,1.979,0.327,2.923,0.489
		c-0.24,1.169-1.518,7.48-1.688,8.34c-0.966,0.16-1.959,0.214-2.924,0.226c-2.453,0.02-4.972,0.039-6.22,2.755
		c-0.386,0.765-0.546,1.486-0.546,2.156c0,2.366,2.016,4.166,3.353,5.346l0.632,0.573c0.957,0.903,2.209,1.78,3.53,2.71
		c3.793,2.649,8.033,5.617,8.033,10.738c0,0.61-0.069,1.261-0.197,1.938c-0.433,2.264-1.834,4.175-4.171,5.679
		c-7.975,5.136-25.708,4.646-35.823,2.321c-0.036-0.49-0.826-11.66-0.967-13.575c3.559,1.408,11.633,3.966,16.718,0.445l0.223-0.16
		l0.058-0.262c0.137-0.561,0.2-1.097,0.2-1.616c0-4.398-4.581-7.343-8.687-9.973c-2.605-1.67-5.055-3.241-6.147-4.972
		c-0.575-0.921-0.862-1.882-0.862-2.875c0-0.688,0.133-1.385,0.403-2.101c1.635-4.266,7.524-7.85,10.364-8.66
		c0.027,0.01,7.822-0.948,8.038-0.977C192.221,24.803,196.787,25.59,201.198,26.351"/>
	<path fill-rule="evenodd" clip-rule="evenodd" fill="#EE4034" d="M267.926,70.412c-4.196,0.246-12.491,1.165-15.727-0.277
		c-0.102-14.652-0.19-29.315-0.287-43.972c4.314-0.892,11.362-1.015,15.268,0.052c0.132,4.019,0.247,8.047,0.364,12.066
		c0.156-0.072,0.307-0.151,0.457-0.232c2.836-4.587,5.666-9.173,8.499-13.771c2.059,0.586,4.114,1.167,6.175,1.754
		c2.48,0.736,7.701,0.894,8.469,3.317c-2.564,4.025-11.252,13.127-12.103,17.236c2.15,2.492,13.808,21.683,13.497,23.996
		c-6.005-0.084-12.001-0.166-18.007-0.245c-2.181-4.841-4.366-9.673-6.559-14.509c-0.075,0-0.148,0.005-0.219,0.005
		C267.804,60.689,267.86,65.551,267.926,70.412"/>
	<path fill-rule="evenodd" clip-rule="evenodd" fill="#EE4034" d="M275.893,23.902c0,0-7.411,12.003-7.682,12.447
		c-0.055-1.78-0.327-10.688-0.327-10.688l-0.519-0.142c-4.103-1.116-11.372-0.931-15.595-0.06l-0.582,0.121l0.295,45.024
		l0.426,0.191c2.878,1.28,9.185,0.821,13.794,0.488l2.938-0.207v-0.675c0,0-0.102-7.935-0.134-11.663
		c1.585,3.513,5.555,12.307,5.555,12.307l19.095,0.259l0.087-0.629c0.008-0.047,0.008-0.089,0.008-0.148
		c0-3.153-11.031-20.975-13.414-24.084c0.718-2.579,4.49-7.25,7.571-11.039c1.752-2.183,3.431-4.238,4.34-5.671l0.179-0.286
		l-0.105-0.318c-0.692-2.203-3.857-2.785-6.653-3.3l-2.291-0.494c-0.012,0-6.698-1.894-6.698-1.894L275.893,23.902z M267.884,38.918
		l0.624-0.324c0,0,7.797-12.631,8.322-13.476c0.866,0.248,5.647,1.595,5.647,1.595l2.433,0.527c2.032,0.375,4.675,0.903,5.36,2.105
		c-0.904,1.344-2.391,3.186-3.98,5.156c-3.452,4.256-7.366,9.079-7.953,11.934l-0.07,0.349l0.23,0.264
		c2.174,2.517,11.997,18.942,13.202,22.803c-1.49-0.022-15.875-0.214-16.701-0.227c-0.36-0.785-6.559-14.522-6.559-14.522
		l-1.396,0.017l-0.005,0.715c0,0,0.142,12.678,0.157,13.909c-0.671,0.046-1.601,0.108-1.601,0.108
		c-3.997,0.292-9.922,0.708-12.685-0.234c-0.007-1-0.277-41.84-0.277-42.833c3.954-0.721,10.046-0.865,13.845,0.031
		c0.021,0.952,0.391,12.628,0.391,12.628L267.884,38.918z"/>
	<path fill-rule="evenodd" clip-rule="evenodd" fill="#EE4034" d="M232.184,54.193c-2.277,0.025-4.552,0.053-6.832,0.083
		c-0.089,5.392-0.186,10.789-0.269,16.177c-4.95,0.115-11.329,0.61-14.362-0.287c-0.246-14.727-0.495-29.465-0.744-44.202
		c5.171-0.269,9.764-1.444,15.5,0.052c-0.012,5.546-0.021,11.09-0.03,16.634c2.199-0.024,4.396-0.05,6.604-0.076
		c0.089-5.55,0.177-11.093,0.254-16.638c2.212,0.056,4.416,0.103,6.62,0.153c-0.229,0.455-0.447,0.914-0.671,1.372
		c0.077,0,0.15-0.003,0.226-0.003c2.589-1.546,6.962-2.371,10.925-1.263c-0.207,14.734-0.412,29.477-0.621,44.208
		c-5.466-0.006-10.941-0.018-16.405-0.032C232.304,64.979,232.25,59.583,232.184,54.193"/>
	<path fill-rule="evenodd" clip-rule="evenodd" fill="#EE4034" d="M213.791,24.927l-4.515,0.383l-0.01,0.67l0.75,44.726l0.505,0.151
		c2.516,0.743,7.012,0.576,11.371,0.419l3.893-0.124l0.023-0.943c0,0,0.224-13.953,0.247-15.223
		c0.987-0.016,4.402-0.056,5.422-0.069c0.017,1.312,0.186,16.167,0.186,16.167l17.823,0.036l0.647-45.47l-0.532-0.15
		c-3.552-0.989-7.228-0.494-9.858,0.558c0.137-0.297,0.313-0.659,0.313-0.659l-8.452-0.198c0,0-0.242,15.434-0.257,16.664
		c-0.452,0.001-4.123,0.045-5.19,0.06c0-1.183,0.035-16.462,0.035-16.462l-0.534-0.141
		C221.269,24.178,217.463,24.559,213.791,24.927 M213.932,26.354c3.55-0.356,6.925-0.655,10.819,0.255
		c0,1.043-0.032,16.77-0.032,16.77l8.037-0.095c0,0,0.243-15.525,0.264-16.614c0.938,0.019,3.481,0.079,4.765,0.111
		c-0.083,0.175-0.683,1.408-0.683,1.408l1.572-0.017l0.172-0.1c2.144-1.279,6.071-2.136,9.835-1.26
		c-0.021,1.213-0.586,41.625-0.607,42.875c-1.239-0.003-13.751-0.029-14.987-0.035c-0.021-1.294-0.188-16.183-0.188-16.183
		l-8.254,0.097c0,0-0.255,15.38-0.267,16.192c-0.853,0.026-2.541,0.083-2.541,0.083c-3.799,0.136-8.002,0.265-10.398-0.278
		c-0.023-1.125-0.71-41.674-0.729-42.936C211.643,26.547,213.932,26.354,213.932,26.354"/>
	<path fill-rule="evenodd" clip-rule="evenodd" fill="#EE4034" d="M292.468,25.687c4.566,0.096,9.118,0.2,13.678,0.298
		c2.927,2.384,2.685,8.914,4.922,12.019c0.073,0,0.155,0,0.229-0.003c0.784-4.031,1.568-8.068,2.366-12.106
		c5.085,0.018,10.181,0.034,15.271,0.045v0.235c-1.725,9.408-8.198,17.544-10.626,26.328c-1.698,6.1,1.682,12.271-0.023,18
		c-4.93,0.113-11.575,0.884-15.723-0.27c0.227-6.534,0.45-13.068,0.679-19.608C301.569,45.742,291.876,29.805,292.468,25.687"/>
	<path fill-rule="evenodd" clip-rule="evenodd" fill="#EE4034" d="M291.754,25.589c-0.017,0.15-0.026,0.315-0.026,0.495
		c0,2.875,2.857,8.678,6.839,16.431c1.729,3.36,3.34,6.517,3.952,8.236c-0.012,0.294-0.702,20.025-0.702,20.025l0.554,0.151
		c3.257,0.903,7.972,0.665,12.128,0.457l4.314-0.182l0.16-0.497c0.891-3.001,0.457-6.112,0.04-9.122
		c-0.407-2.936-0.831-5.968-0.014-8.892c1.066-3.862,2.911-7.545,4.854-11.449c2.364-4.744,4.813-9.64,5.786-14.938l0.012-0.073
		l-0.021-1.017l-0.697,0.011l-15.863-0.05c0,0-1.905,9.782-2.129,10.899c-0.469-1.127-0.853-2.394-1.181-3.717
		c-0.666-2.679-1.349-5.448-3.167-6.926l-0.188-0.157l-14.561-0.316L291.754,25.589z M303.955,50.651l0.005-0.131l-0.04-0.123
		c-0.617-1.799-2.221-4.921-4.077-8.538c-2.75-5.354-6.412-12.509-6.643-15.438c1.305,0.029,12.066,0.257,12.622,0.275
		c1.338,1.224,1.96,3.642,2.541,6c0.514,2.088,1.051,4.239,2.122,5.725l0.222,0.305l1.187-0.022l0.108-0.567
		c0,0,2.056-10.521,2.249-11.52c1.008,0,12.524,0.036,13.841,0.043c-0.978,4.785-3.276,9.438-5.521,13.941
		c-1.898,3.792-3.855,7.713-4.964,11.71c-0.375,1.367-0.514,2.724-0.514,4.072c0,1.826,0.252,3.628,0.494,5.397
		c0.248,1.723,0.476,3.391,0.476,5.015c0,1.026-0.155,2.026-0.402,3.018c-0.857,0.036-3.235,0.136-3.235,0.136
		c-3.834,0.195-8.104,0.376-11.133-0.312C303.338,68.47,303.955,50.651,303.955,50.651"/>
	<path fill-rule="evenodd" clip-rule="evenodd" fill="#EE4034" d="M61.625,25.649c-0.917,1.018-0.47,5.005-0.374,6.843
		c-2.717-1.758-4.246-4.452-7.809-5.608c-8.592-2.769-22.768-1.514-31.925-1.216c-0.074,0.076-0.149,0.148-0.221,0.227
		c0.625,14.651,1.254,29.308,1.88,43.958c3.59,1.623,11.341,0.492,15.047,0.283c-0.071-5.622-0.136-11.243-0.202-16.859
		c11.676-3.065,16.283-5.126,23.092-12.809c0.076-0.151,0.149-0.305,0.226-0.455c0.907,2.087,0.084,5.432,0.316,7.741
		c0.237,7.366,0.482,14.731,0.714,22.098c2.706,1.223,12.193,0.709,15.045,0.276c0.133-14.808,0.262-29.625,0.393-44.437
		C74.902,24.928,63.487,24.881,61.625,25.649 M37.916,44.16c-0.043-3.571-0.081-7.141-0.124-10.71
		c3.439-0.154,5.898,0.207,7.544,2.423C46.45,40.66,42.21,44.035,37.916,44.16"/>
	<path fill="#EE4034" d="M61.348,24.988l-0.146,0.064l-0.106,0.119c-0.583,0.635-0.759,1.868-0.759,3.422
		c0,0.698,0.057,1.506,0.106,2.306c-0.461-0.384-0.951-0.731-1.409-1.157c-1.471-1.36-2.988-2.765-5.377-3.537
		c-7.317-2.361-18.445-1.858-27.383-1.452l-5.062,0.21l-0.575,0.579l-0.061,0.386l1.902,44.398l0.407,0.182
		c3.061,1.382,8.724,0.896,12.855,0.539l3.192-0.248l0.007-0.67c0,0-0.186-15.346-0.193-16.307
		c11.025-2.929,15.865-5.185,22.249-12.174c0.036,0.36,0.065,0.734,0.065,1.128c0,0.657-0.041,1.342-0.083,2.024l-0.035,3.03
		c-0.001-0.049,0.25,7.682,0.25,7.682l0.476,14.81l0.408,0.183c2.916,1.322,12.622,0.771,15.441,0.333l0.608-0.091l0.404-45.607
		l-0.539-0.14C75.112,24.241,63.501,24.1,61.348,24.988 M77.081,26.294c-0.003,1.166-0.368,41.985-0.375,43.198
		c-3.318,0.412-10.929,0.711-13.635-0.176c-0.031-0.951-0.695-21.591-0.695-21.6c0-0.251,0.035-2.835,0.035-2.835
		c0.043-0.701,0.08-1.413,0.08-2.106c0-1.104-0.105-2.152-0.489-3.049l-0.626-1.433c0,0-0.823,1.7-0.853,1.767
		c-6.613,7.434-11.028,9.461-22.681,12.522l-0.543,0.142c0,0,0.186,15.609,0.196,16.748c-0.731,0.057-1.875,0.147-1.875,0.147
		c-3.602,0.309-8.915,0.735-11.747-0.321c-0.043-1.004-1.798-41.972-1.84-42.931c0.792-0.035,4.307-0.183,4.307-0.183
		c8.827-0.399,19.811-0.897,26.875,1.387c2.092,0.677,3.428,1.915,4.844,3.223c0.859,0.797,1.743,1.616,2.809,2.303l1.194,0.778
		l-0.154-2.355c-0.048-0.703-0.129-1.867-0.129-2.947c0-1.025,0.09-1.912,0.337-2.302C64.12,25.662,73.833,25.691,77.081,26.294"/>
	<path fill="#EE4034" d="M37.761,32.735l-0.697,0.03l0.144,12.137l0.731-0.025c2.713-0.078,5.346-1.361,6.875-3.345
		c1.293-1.683,1.714-3.695,1.223-5.824l-0.034-0.146l-0.087-0.121C44.079,32.976,41.332,32.577,37.761,32.735 M44.659,36.197
		c0.082,0.405,0.143,0.801,0.143,1.197c0,1.186-0.382,2.295-1.131,3.264c-1.132,1.471-3.021,2.436-5.049,2.683
		c-0.013-1.285-0.095-8.054-0.105-9.187C41.286,34.089,43.309,34.483,44.659,36.197"/>
	<path fill-rule="evenodd" clip-rule="evenodd" fill="#EE4034" d="M120.371,40.686c2.817-5.038-1.176-9.693-4.703-11.79
		c-8.425-5.016-22.996-3.778-35.818-3.456c0.404,14.88,0.809,29.771,1.211,44.649c4.629,0.1,9.268,0.196,13.9,0.295
		c0.148-0.233,0.293-0.464,0.446-0.69c0.02-4.939,0.045-9.876,0.06-14.816c1.422,0.598,8.129,12.628,8.832,14.71
		c2.85,1.632,11.319,0.876,16.188,0.723c0.018-3.689-9.586-16.579-11.642-21.059C112.306,45.796,117.87,45.148,120.371,40.686
		 M96.033,45.076c-0.225,0.002-0.454,0.002-0.68,0.002c0.03-3.719,0.055-7.443,0.1-11.163
		C106.607,33.32,103.491,42.412,96.033,45.076"/>
	<path fill="#EE4034" d="M84.675,24.574l-5.56,0.17l0.019,0.716l1.226,45.331l14.993,0.321l0.729-1.14l0.047-0.278
		c0,0,0.045-11.53,0.047-12.975c2.228,3.081,6.839,11.317,7.44,13.099l0.089,0.262l0.236,0.132
		c2.544,1.453,8.791,1.166,13.812,0.933l3.44-0.145l0.01-0.699c0-2.368-3.017-7.274-7.267-13.941
		c-1.74-2.724-3.348-5.26-4.181-6.907c1.306-1.181,2.845-2.048,4.502-2.918c2.549-1.341,5.18-2.724,6.739-5.499
		c0.721-1.283,1.033-2.568,1.033-3.814c0-3.67-2.728-7.002-5.991-8.945C108.473,23.777,96.374,24.186,84.675,24.574 M84.72,26.006
		c11.5-0.382,23.381-0.781,30.582,3.503c2.267,1.352,5.314,4.194,5.314,7.661c0,1.007-0.259,2.074-0.871,3.167
		c-1.347,2.406-3.682,3.631-6.154,4.926c-1.831,0.962-3.723,1.96-5.256,3.484l-0.349,0.35l0.205,0.455
		c0.781,1.697,2.515,4.42,4.53,7.577c2.867,4.497,6.347,9.965,6.929,12.498c-0.812,0.034-1.962,0.086-1.962,0.086
		c-4.479,0.208-10.553,0.478-12.855-0.678c-0.971-2.346-7.307-14.067-9.088-14.817l-0.993-0.411c0,0-0.056,15.266-0.056,15.674
		c-0.034,0.049-0.056,0.089-0.122,0.178c-0.662-0.016-11.64-0.248-12.813-0.272c-0.04-1.314-1.143-42.079-1.169-43.253
		C81.629,26.103,84.72,26.006,84.72,26.006"/>
	<path fill="#EE4034" d="M95.408,33.199l-0.668,0.035l-0.114,12.573l1.543-0.012l0.106-0.041c4.575-1.636,7.759-5.588,7.112-8.812
		C103.142,35.706,101.865,32.854,95.408,33.199 M101.98,37.227c0.042,0.169,0.054,0.35,0.054,0.533c0,2.128-2.277,5.068-5.958,6.501
		c0.003-1.003,0.074-8.509,0.081-9.647C99.524,34.56,101.634,35.49,101.98,37.227"/>
	<path fill-rule="evenodd" clip-rule="evenodd" fill="#EE4034" d="M162.252,37.012c-4.223-7.423-10.245-10.291-20.418-11.841
		c-2.575,0.486-5.155,0.975-7.728,1.454c-5.871,2.23-11.188,7.464-13.292,13.375c-5.571,15.682,7.8,33.584,24.286,30.705
		C158.776,68.324,171.256,52.799,162.252,37.012 M144.438,53.17c-6.555,1.699-12.115-4.949-10.601-10.817
		c1.007-3.955,3.707-5.082,7.21-6.692C152.208,35.982,155.497,50.298,144.438,53.17"/>
	<path fill="#EE4034" d="M141.697,24.463l-7.725,1.458c-6.304,2.384-11.686,7.802-13.834,13.836
		c-2.82,7.949-1.047,17.074,4.643,23.815c5.254,6.229,12.902,9.158,20.447,7.842c7.926-1.382,15.27-6.987,18.698-14.281
		c3.103-6.577,2.734-13.849-1.043-20.479c-4.688-8.209-11.486-10.752-20.938-12.198l-0.123-0.016L141.697,24.463z M141.839,25.9
		c10.586,1.629,15.958,4.745,19.792,11.467c1.956,3.432,2.94,7.044,2.94,10.625c0,2.901-0.646,5.784-1.94,8.531
		c-3.243,6.883-10.172,12.175-17.652,13.475c-7.037,1.232-14.176-1.519-19.097-7.351c-3.682-4.36-5.63-9.775-5.63-15.154
		c0-2.459,0.406-4.912,1.239-7.255c2.009-5.655,7.059-10.735,12.864-12.941C134.403,27.299,141.152,26.025,141.839,25.9"/>
	<path fill="#EE4034" d="M140.748,35.01l-0.339,0.154c-3.331,1.528-6.207,2.85-7.275,7.015c-0.812,3.175,0.233,6.701,2.73,9.199
		c2.405,2.402,5.595,3.307,8.755,2.487h0.002c4.95-1.287,7.815-5.081,7.3-9.67c-0.506-4.458-4.393-9.063-10.854-9.25l-0.17-0.004
		L140.748,35.01z M136.882,50.364c-1.666-1.662-2.584-3.845-2.584-6.003c0-0.615,0.073-1.225,0.233-1.827
		c0.885-3.5,3.235-4.576,6.476-6.068c0,0,0.083-0.035,0.161-0.069c5.553,0.227,8.893,4.156,9.323,7.962
		c0.035,0.277,0.054,0.563,0.054,0.85c0,2.863-1.628,6.057-6.285,7.267C141.606,53.164,138.916,52.392,136.882,50.364"/>
	<path fill-rule="evenodd" clip-rule="evenodd" fill="#261C02" d="M290.409,117.574c0.157,0.309,0.313,0.614,0.474,0.938
		c0.937,1.812,2.101,4.088,2.842,5.661c-0.913-1.548-2.308-3.855-3.716-6.066C290.139,117.93,290.271,117.753,290.409,117.574"/>
	<path fill-rule="evenodd" clip-rule="evenodd" fill="#261C02" d="M271.642,85.023c0,0-1.712,2.775-2.136,3.462
		c-5.6-1.441-13.685-1.237-18.977-0.259c-3.125-0.642-6.445-0.688-9.635-0.106c0.146-0.01-9.53-0.233-9.53-0.233l-6.495-0.151
		c-4.521-0.72-8.574-0.412-12.007-0.066c0.005,0-6.425,0.546-6.903,0.589c-0.17-0.033-2.936-0.487-2.936-0.487
		c-4.688-0.812-10.01-1.734-15.838-1.613l-0.476,0.009c-0.066,0.011-9.451,1.161-9.451,1.161c-0.107,0.02-0.805,0.218-0.805,0.218
		c-3.513,1.001-8.666,3.821-12.599,7.853c-6.337-5.346-13.9-7.129-20.502-8.137l-1.691-0.259l-1.693,0.318l-8.542,1.611
		c-0.116,0.033-0.895,0.323-0.895,0.323c-2.73,1.04-5.336,2.518-7.791,4.341c-0.573-0.394-1.918-1.308-1.918-1.308
		c-9.917-5.896-23.402-5.447-36.435-5.016c-0.018,0-7.157,0.218-7.157,0.218c-5.401-0.623-15.418-0.767-19.458,0.904
		c0,0-1.869,0.774-1.905,0.792c-8.894-2.673-20.59-2.158-30.024-1.731l-8.625,0.356l-2.959,2.918
		c-0.007,0.009-3.262,3.338-3.262,3.338l0.234,4.315l2.147,50.15l5.655,2.548c4.896,2.209,10.816,1.907,17.501,1.328l11.635-0.909
		l0.124-9.42c0-0.014-0.09-7.289-0.115-9.258c0.653-0.24,2.637-0.975,3.78-1.394c0.054,1.769,0.548,17.053,0.548,17.053l5.701,2.588
		c6.223,2.819,19.146,1.267,20.599,1.081c0,0.007,21.152,0.452,21.152,0.452l0.393,0.014c0,0,0.619-0.956,0.924-1.413
		c4.394,1.725,10.027,1.648,16.896,1.331l12.224-0.511c0,0,0.018-0.947,0.021-1.166c5.242,2.099,10.875,2.781,16.416,1.818
		c3.816-0.667,7.476-2.08,10.953-4.042c0.04,0.582,0.125,1.693,0.125,1.693l7.159,1.725c9.142,2.209,27.176,3.709,39.622-1.119
		c0.369,0.108,3.18,0.938,3.18,0.938c3.99,1.178,9.016,0.996,14.357,0.803l5.941-0.197l23.758,0.052
		c4.003,0.796,8.918,0.529,14.45,0.132l3.89-0.271c0,0.003,30.413,0.422,30.413,0.422l0.631,0.007c0,0,0.063-0.402,0.075-0.534
		c4.442,0.906,9.473,0.694,13.577,0.487c0.005,0,10.736-0.45,10.736-0.45l2.237-6.896c1.46-4.954,0.841-9.455,0.344-13.065
		c-0.28-2.004-0.567-4.06-0.275-5.119c0.829-2.991,2.468-6.281,4.208-9.767c2.541-5.08,5.412-10.833,6.627-17.443l0.156-0.892
		c0.016-0.131-0.111-10.476-0.111-10.476l-0.014-0.709l-32.822-0.103c-0.002,0.11-21.668-0.361-21.668-0.361l-0.629-0.014
		c0,0-0.028,0.233-0.062,0.421c-1.385-0.391-11.763-3.334-11.763-3.334L271.642,85.023z M270.46,89.672c0,0,1.674-2.718,2.114-3.435
		c0.956,0.272,12.317,3.491,12.317,3.491s0.104-0.744,0.108-0.789c1.198,0.023,21.016,0.455,21.016,0.455
		c0.035-0.1,26.808-0.026,31.441-0.012c0.021,1.223,0.12,9.596,0.12,9.627c-0.016,0-0.146,0.765-0.146,0.765
		c-1.175,6.406-4.004,12.065-6.495,17.056c-1.773,3.551-3.448,6.902-4.308,10.025c-0.132,0.454-0.172,0.988-0.172,1.582
		c0,1.189,0.193,2.619,0.394,4.104c0.266,1.889,0.558,4.019,0.558,6.31c0,1.947-0.214,4.016-0.84,6.148
		c0.007-0.014-1.456,4.482-1.927,5.926c-0.899,0.04-9.743,0.407-9.743,0.407c-4.25,0.222-9.542,0.49-13.955-0.572l-0.768-0.186
		l-0.108,0.793c-1.221-0.025-29.826-0.409-29.826-0.409c-0.062,0-3.959,0.264-3.959,0.264c-5.235,0.386-10.254,0.659-14.21-0.111
		c-0.144-0.021-23.92-0.07-23.92-0.07c-0.023,0-5.979,0.193-5.979,0.193c-5.209,0.188-10.13,0.374-13.895-0.739l-3.623-1.074
		l-0.232,0.099c-12.148,4.816-29.988,3.32-39.019,1.145c0,0-4.623-1.118-6.142-1.486c-0.038-0.612-0.206-2.875-0.206-2.875
		l-1.004,0.607c-3.597,2.19-7.466,3.65-11.474,4.35c-5.585,0.978-11.324,0.273-16.574-2.032l-0.99-0.436c0,0-0.021,1.47-0.029,1.854
		c-1.193,0.05-10.878,0.454-10.878,0.454c-6.982,0.323-12.653,0.427-16.842-1.413l-0.563-0.244c0,0-0.85,1.307-1.109,1.724
		c-0.774-0.019-20.857-0.438-20.857-0.438c-1.517,0.184-14.064,1.696-19.935-0.963c0,0-4.192-1.905-4.884-2.224
		c-0.025-0.845-0.584-18.147-0.584-18.147l-6.566,2.426l-0.028,0.511l0.119,9.75c0,0-0.077,6.113-0.1,8.09
		c-1.155,0.092-10.336,0.812-10.336,0.812c-6.48,0.558-12.216,0.853-16.794-1.208c0,0-3.655-1.648-4.854-2.188
		c-0.033-0.869-2.107-49.276-2.107-49.276c0-0.004-0.148-2.771-0.2-3.688c0.381-0.388,2.815-2.879,2.815-2.879
		s1.94-1.915,2.555-2.52c0.515-0.022,8.074-0.334,8.074-0.334c9.45-0.431,21.208-0.961,29.9,1.758l0.252,0.077l0.337-0.203
		l1.924-0.794c3.642-1.514,13.288-1.436,18.849-0.805c0.103,0.007,7.247-0.215,7.247-0.215c12.85-0.427,26.116-0.868,35.674,4.816
		l2.637,1.798l0.448-0.293c2.462-1.888,5.113-3.381,7.859-4.429l0.777-0.29c0.006,0.012,8.418-1.573,8.418-1.573
		s1.157-0.219,1.455-0.278c0.204,0.036,1.447,0.226,1.447,0.226c6.574,0.999,14.125,2.76,20.276,8.196l0.529,0.463l0.476-0.512
		c3.789-4.092,8.97-6.918,12.429-7.902l0.699-0.198c-0.106,0.021,9.226-1.126,9.272-1.129l0.404-0.006
		c5.688-0.12,10.934,0.792,15.577,1.587c0,0.004,3.099,0.519,3.099,0.519l7.101-0.602c3.354-0.337,7.296-0.643,11.74,0.063
		c0.096,0.009,6.599,0.158,6.599,0.158l9.677,0.225c3.205-0.574,6.403-0.536,9.389,0.1l0.142,0.033l0.146-0.027
		c5.209-0.98,13.329-1.204,18.765,0.272c-0.008,0,0.181,0.052,0.181,0.052l0.53,0.148L270.46,89.672z"/>
	<polygon fill-rule="evenodd" clip-rule="evenodd" fill="#261C02" points="289.835,117.136 289.138,118.068 289.408,118.49 
		293.11,124.545 294.372,123.871 291.443,118.021 290.529,116.227 	"/>
	<path fill-rule="evenodd" clip-rule="evenodd" fill="#261C02" d="M290.409,45.523c0.157,0.311,0.313,0.619,0.474,0.939
		c0.937,1.819,2.101,4.089,2.842,5.669c-0.913-1.552-2.308-3.858-3.716-6.074C290.139,45.885,290.271,45.706,290.409,45.523"/>
	<path fill-rule="evenodd" clip-rule="evenodd" fill="#261C02" d="M271.642,12.975c0,0-1.712,2.778-2.136,3.462
		c-5.6-1.44-13.685-1.233-18.977-0.256c-3.125-0.644-6.445-0.693-9.635-0.104c0.146-0.015-7.114-0.184-7.114-0.184l-8.911-0.206
		c-4.521-0.717-8.574-0.408-12.007-0.062c0.005,0-6.419,0.547-6.903,0.589c-0.17-0.029-2.936-0.489-2.936-0.489
		c-4.684-0.814-9.997-1.737-15.838-1.611l-0.476,0.012c-0.066,0.003-9.451,1.157-9.451,1.157c-0.107,0.021-0.805,0.222-0.805,0.222
		c-3.508,0.993-8.666,3.815-12.599,7.848c-6.337-5.344-13.9-7.13-20.502-8.139l-1.691-0.259l-10.235,1.93
		c-0.116,0.033-0.895,0.326-0.895,0.326c-2.73,1.038-5.342,2.515-7.791,4.335c-0.573-0.387-1.918-1.304-1.918-1.304
		c-9.917-5.899-23.402-5.449-36.444-5.018c-0.008,0-7.147,0.221-7.147,0.221c-5.397-0.624-15.418-0.77-19.458,0.904
		c0,0-1.835,0.756-1.905,0.788c-8.89-2.669-20.586-2.155-30.024-1.729l-8.625,0.354l-2.959,2.917
		c-0.007,0.011-3.262,3.343-3.262,3.343l0.234,4.312l2.147,50.146l5.655,2.553c4.887,2.209,10.816,1.91,17.501,1.33l11.635-0.913
		l0.124-9.417c0-0.014-0.09-7.288-0.115-9.256c0.653-0.243,2.637-0.975,3.78-1.396c0.054,1.771,0.548,17.053,0.548,17.053
		l5.701,2.588c6.236,2.831,19.146,1.274,20.599,1.086c0,0.007,21.152,0.456,21.152,0.456l0.393,0.006c0,0,0.619-0.956,0.924-1.408
		c4.394,1.72,10.027,1.644,16.896,1.331l12.224-0.515c0,0,0.018-0.943,0.021-1.165c5.235,2.094,10.872,2.781,16.416,1.817
		c3.816-0.664,7.476-2.081,10.953-4.042c0.04,0.584,0.125,1.696,0.125,1.696l7.159,1.727c9.142,2.208,27.179,3.704,39.622-1.122
		c0.369,0.111,3.18,0.938,3.18,0.938c3.99,1.176,9.016,0.994,14.357,0.796l5.941-0.189c0.007,0,23.758,0.051,23.758,0.051
		c3.993,0.795,8.918,0.531,14.45,0.128l3.89-0.269c0,0.002,30.413,0.419,30.413,0.419l0.631,0.007c0,0,0.063-0.399,0.075-0.535
		c4.435,0.907,9.473,0.697,13.577,0.487l10.736-0.447l2.237-6.898c1.46-4.948,0.841-9.446,0.344-13.06
		c-0.28-2.004-0.567-4.06-0.275-5.122c0.829-2.994,2.468-6.285,4.208-9.766c2.541-5.08,5.412-10.839,6.627-17.442
		c0-0.003,0.156-0.894,0.156-0.894c0.016-0.136-0.111-10.482-0.111-10.482l-0.014-0.705l-32.822-0.106
		c-0.002,0.109-21.668-0.36-21.668-0.36l-0.629-0.01c0,0-0.028,0.235-0.062,0.42c-1.385-0.388-11.763-3.334-11.763-3.334
		L271.642,12.975z M270.46,17.62c0,0,1.674-2.714,2.114-3.431c0.956,0.271,12.317,3.493,12.317,3.493s0.104-0.747,0.108-0.792
		c1.198,0.024,21.016,0.451,21.016,0.451c0.035-0.097,26.808-0.022,31.441-0.004c0.021,1.225,0.12,9.599,0.12,9.624
		c-0.016,0.001-0.146,0.767-0.146,0.767c-1.175,6.406-4.004,12.064-6.495,17.054c-1.773,3.553-3.448,6.899-4.308,10.029
		c-0.125,0.452-0.172,0.984-0.172,1.582c0,1.191,0.193,2.618,0.394,4.101c0.266,1.891,0.558,4.019,0.558,6.31
		c0,1.949-0.214,4.021-0.84,6.154c0.007-0.018-1.456,4.481-1.927,5.925c-0.899,0.039-9.743,0.407-9.743,0.407
		c-4.25,0.214-9.552,0.483-13.955-0.575l-0.768-0.186l-0.108,0.789c-1.221-0.019-29.826-0.406-29.826-0.406
		c-0.064,0.002-3.959,0.27-3.959,0.27c-5.436,0.392-10.249,0.655-14.21-0.124c-0.144-0.011-23.92-0.062-23.92-0.062
		c-0.023,0-5.979,0.191-5.979,0.191c-5.212,0.193-10.133,0.373-13.895-0.737l-3.623-1.067l-0.232,0.092
		c-12.142,4.814-29.988,3.321-39.019,1.141c0,0-4.623-1.116-6.142-1.482c-0.038-0.612-0.206-2.878-0.206-2.878l-1.004,0.61
		c-3.597,2.187-7.466,3.652-11.474,4.353c-5.593,0.974-11.33,0.267-16.574-2.036l-0.99-0.436c0,0-0.021,1.468-0.029,1.854
		c-1.193,0.052-10.878,0.456-10.878,0.456c-6.982,0.324-12.653,0.428-16.842-1.419l-0.563-0.24c0,0-0.85,1.312-1.109,1.723
		c-0.774-0.018-20.857-0.441-20.857-0.441c-5.228,0.664-15.163,1.201-19.935-0.963c0,0-3.681-1.668-4.884-2.215
		c-0.025-0.849-0.584-18.147-0.584-18.147l-6.566,2.42l-0.028,0.517l0.119,9.744c0,0-0.077,6.116-0.1,8.089
		c-1.155,0.093-10.336,0.812-10.336,0.812c-6.487,0.561-12.219,0.857-16.794-1.21c0,0-3.655-1.646-4.854-2.188
		c-0.033-0.867-2.107-49.271-2.107-49.271c0-0.007-0.148-2.774-0.2-3.69c0.381-0.389,2.815-2.88,2.815-2.88s1.94-1.914,2.555-2.518
		c0.515-0.025,8.074-0.335,8.074-0.335c9.45-0.428,21.208-0.958,29.9,1.759l0.252,0.077l0.337-0.203l1.924-0.802
		c3.642-1.506,13.288-1.435,18.849-0.8c0.103,0.001,7.247-0.214,7.247-0.214c12.843-0.426,26.116-0.868,35.674,4.815l2.637,1.798
		l0.448-0.294c2.462-1.893,5.105-3.376,7.859-4.425l0.777-0.289c0.006,0.009,8.418-1.581,8.418-1.581s1.245-0.232,1.455-0.271
		c0.204,0.03,1.447,0.22,1.447,0.22c6.574,1.005,14.125,2.764,20.276,8.199l0.529,0.467l0.476-0.514
		c3.789-4.095,8.98-6.921,12.429-7.903l0.699-0.196c-0.106,0.019,9.226-1.126,9.272-1.129l0.404-0.007
		c5.703-0.12,10.94,0.788,15.577,1.586c0,0.002,3.099,0.522,3.099,0.522l7.101-0.605c3.354-0.341,7.296-0.64,11.74,0.064
		c0.096,0.008,9.003,0.213,9.003,0.213l7.272,0.167c3.205-0.571,6.403-0.535,9.389,0.106l0.142,0.03l0.146-0.026
		c5.209-0.984,13.329-1.205,18.765,0.27l0.711,0.195L270.46,17.62z"/>
	<path fill-rule="evenodd" clip-rule="evenodd" fill="#261C02" d="M289.835,45.091l-0.697,0.93l0.271,0.423l3.702,6.048l1.262-0.673
		l-2.823-5.647c-0.021-0.032-1.02-1.992-1.02-1.992L289.835,45.091z"/>
	<path fill-rule="evenodd" clip-rule="evenodd" fill="#261C02" d="M187.386,95.516l-0.076,0.004l-8.189,1.006
		c-3.018,0.846-9.527,4.604-11.42,9.544c-0.34,0.892-0.508,1.769-0.508,2.624c0,1.258,0.362,2.468,1.096,3.629
		c1.261,2.002,3.845,3.66,6.574,5.417c3.953,2.536,8.031,5.146,8.031,8.805c0,0.3-0.057,0.607-0.115,0.926
		c-5.049,3.224-13.613-0.017-16.162-1.118l-1.073-0.469l1.2,16.956l0.518,0.122c9.885,2.388,28.62,3.273,37.438-2.407
		c2.679-1.724,4.298-3.949,4.812-6.615c1.387-7.248-4.057-11.059-8.422-14.12c-1.283-0.899-2.493-1.745-3.37-2.581l-0.67-0.601
		c-2.049-1.813-3.639-3.504-2.46-5.799c0.83-1.831,2.34-1.931,4.932-1.949c1.187-0.008,2.416-0.02,3.668-0.294l0.453-0.097
		l2.175-10.782l-4.388-0.731C196.937,96.212,192.311,95.41,187.386,95.516 M201.188,98.399c0,0,1.986,0.329,2.934,0.487
		c-0.24,1.171-1.518,7.477-1.688,8.34c-0.966,0.164-1.959,0.219-2.924,0.226c-2.453,0.019-4.972,0.04-6.22,2.755
		c-0.386,0.765-0.546,1.481-0.546,2.155c0,2.367,2.027,4.168,3.353,5.346l0.632,0.572c0.957,0.907,2.209,1.785,3.529,2.713
		c3.794,2.654,8.034,5.617,8.034,10.741c0,0.607-0.069,1.253-0.197,1.937c-0.433,2.263-1.834,4.17-4.171,5.68
		c-7.967,5.129-25.698,4.649-35.823,2.32c-0.003-0.1-0.826-11.642-0.968-13.572c3.56,1.408,11.635,3.966,16.719,0.44l0.223-0.155
		l0.057-0.269c0.138-0.556,0.2-1.093,0.2-1.608c0-4.399-4.58-7.351-8.686-9.977c-2.604-1.667-5.055-3.242-6.147-4.971
		c-0.575-0.922-0.862-1.883-0.862-2.878c0-0.686,0.133-1.388,0.402-2.099c1.635-4.27,7.525-7.847,10.359-8.658
		c0.033,0.004,7.821-0.952,8.044-0.98C192.217,96.85,196.772,97.637,201.188,98.399"/>
	<path fill-rule="evenodd" clip-rule="evenodd" fill="#261C02" d="M275.893,95.948c0,0-6.467,10.475-7.682,12.448
		c-0.055-1.778-0.327-10.691-0.327-10.691l-0.521-0.138c-4.101-1.118-11.377-0.932-15.593-0.062l-0.582,0.122l0.297,45.025
		l0.424,0.188c2.876,1.281,9.173,0.824,13.774,0.487l2.958-0.2v-0.676c0,0-0.102-7.934-0.134-11.669
		c1.585,3.514,5.555,12.31,5.555,12.31l19.095,0.264l0.087-0.634c0.008-0.044,0.008-0.092,0.008-0.139
		c0-3.162-11.031-20.979-13.414-24.094c0.718-2.576,4.49-7.245,7.571-11.038c1.752-2.182,3.431-4.24,4.34-5.673l0.179-0.28
		l-0.105-0.318c-0.692-2.209-3.857-2.788-6.66-3.304l-2.284-0.487c-0.012-0.008-6.71-1.901-6.71-1.901L275.893,95.948z
		 M267.891,110.968l0.617-0.328l0.105-0.168c0,0,7.76-12.578,8.217-13.305c0.866,0.248,5.647,1.598,5.647,1.598l2.428,0.525
		c2.037,0.372,4.68,0.899,5.365,2.104c-0.904,1.347-2.391,3.188-3.98,5.154c-3.452,4.258-7.366,9.086-7.953,11.936l-0.07,0.346
		l0.23,0.267c2.174,2.518,11.997,18.943,13.202,22.799c-1.49-0.017-15.875-0.212-16.701-0.229
		c-0.36-0.782-6.563-14.517-6.563-14.517l-1.392,0.021l-0.005,0.713c0,0,0.142,12.673,0.157,13.904
		c-0.673,0.05-1.62,0.115-1.62,0.115c-4.001,0.283-9.907,0.702-12.665-0.24c-0.007-0.998-0.277-41.94-0.277-42.831
		c3.954-0.725,10.046-0.858,13.845,0.031c0.021,0.951,0.398,12.636,0.398,12.636L267.891,110.968z"/>
	<path fill-rule="evenodd" clip-rule="evenodd" fill="#261C02" d="M213.798,96.973l-4.521,0.381l-0.01,0.672l0.75,44.726
		l0.505,0.153c2.516,0.742,7.017,0.577,11.373,0.415l3.891-0.12l0.019-0.688c0,0,0.229-14.207,0.252-15.479
		c1.011-0.012,4.776-0.065,5.422-0.067c0.017,1.312,0.186,16.167,0.186,16.167l17.823,0.04l0.647-45.478l-0.532-0.148
		c-3.552-0.992-7.228-0.49-9.86,0.561c0.139-0.3,0.315-0.66,0.315-0.66l-8.452-0.197c0,0-0.242,15.438-0.257,16.664
		c-0.801,0.007-4.236,0.052-5.19,0.062c0-1.185,0.035-16.464,0.035-16.464l-0.534-0.139
		C221.269,96.229,217.475,96.605,213.798,96.973 M213.943,98.402c3.548-0.349,6.913-0.657,10.808,0.254
		c0,1.043-0.032,16.77-0.032,16.77l8.037-0.096c0,0,0.24-15.524,0.264-16.611c1.048,0.022,4.524,0.102,4.765,0.108
		c-0.09,0.183-0.683,1.403-0.683,1.403l1.577-0.011l0.167-0.099c2.144-1.282,6.071-2.136,9.835-1.263
		c-0.021,1.213-0.586,41.625-0.607,42.876c-1.239-0.01-13.751-0.031-14.987-0.033c-0.021-1.293-0.188-16.188-0.188-16.188
		l-8.254,0.099c0,0-0.255,15.595-0.267,16.195c-0.853,0.024-2.531,0.078-2.531,0.078c-3.809,0.142-8.012,0.271-10.408-0.273
		c-0.023-1.128-0.71-41.677-0.729-42.937C211.646,98.598,213.943,98.402,213.943,98.402"/>
	<path fill-rule="evenodd" clip-rule="evenodd" fill="#261C02" d="M291.754,97.636c-0.017,0.152-0.026,0.318-0.026,0.498
		c0,2.873,2.857,8.676,6.839,16.428c1.729,3.358,3.34,6.517,3.952,8.238c-0.012,0.292-0.702,20.024-0.702,20.024l0.554,0.151
		c3.257,0.899,7.977,0.661,12.141,0.454l4.302-0.188l0.16-0.487c0.891-3.005,0.45-6.116,0.04-9.126
		c-0.407-2.935-0.831-5.968-0.014-8.888c1.066-3.867,2.911-7.55,4.854-11.452c2.364-4.738,4.813-9.646,5.786-14.936l0.012-0.074
		l-0.021-1.014l-0.697,0.006l-15.863-0.047c0,0-1.953,10.019-2.129,10.898c-0.469-1.127-0.853-2.396-1.181-3.72
		c-0.666-2.68-1.349-5.444-3.167-6.927l-0.188-0.157l-14.561-0.315L291.754,97.636z M303.955,122.698l0.005-0.132l-0.04-0.127
		c-0.617-1.792-2.221-4.92-4.077-8.53c-2.75-5.353-6.412-12.512-6.643-15.441c1.305,0.028,12.066,0.261,12.622,0.273
		c1.338,1.229,1.96,3.641,2.541,6.003c0.514,2.083,1.051,4.238,2.122,5.728l0.222,0.306l1.196-0.03l0.099-0.564
		c0,0,2.049-10.509,2.249-11.521c1.008,0.009,12.524,0.04,13.841,0.045c-0.978,4.785-3.276,9.438-5.521,13.944
		c-1.898,3.793-3.855,7.707-4.964,11.708c-0.375,1.359-0.514,2.726-0.514,4.074c0,1.82,0.252,3.627,0.494,5.396
		c0.248,1.724,0.476,3.392,0.476,5.014c0,1.027-0.155,2.028-0.402,3.017c-0.857,0.036-3.229,0.137-3.229,0.137
		c-3.832,0.191-8.108,0.377-11.14-0.312C303.338,140.51,303.955,122.698,303.955,122.698"/>
	<path fill="#261C02" d="M61.348,97.035l-0.146,0.06l-0.106,0.12c-0.583,0.636-0.759,1.867-0.759,3.427
		c0,0.694,0.057,1.5,0.106,2.308c-0.461-0.385-0.951-0.737-1.409-1.163c-1.471-1.354-2.988-2.763-5.377-3.537
		c-7.317-2.361-18.445-1.857-27.383-1.448l-5.062,0.209l-0.21,0.212l-0.435,0.436l0.009,0.316l1.902,44.398l0.404,0.182
		c3.064,1.382,8.727,0.895,12.856,0.539l3.195-0.247l0.007-0.674c0,0-0.186-15.27-0.193-16.311
		c11.025-2.925,15.865-5.177,22.249-12.166c0.036,0.362,0.065,0.732,0.065,1.128c0,0.657-0.041,1.34-0.083,2.019l-0.035,3.035
		c-0.001-0.049,0.25,7.753,0.25,7.753l0.476,14.735l0.408,0.188c2.909,1.318,12.619,0.766,15.441,0.334l0.608-0.097l0.404-45.604
		l-0.539-0.143C75.112,96.289,63.501,96.148,61.348,97.035 M77.081,98.341c-0.003,1.17-0.368,41.987-0.375,43.195
		c-3.318,0.412-10.936,0.711-13.635-0.172c-0.031-0.956-0.695-21.591-0.695-21.601c0-0.247,0.035-2.837,0.035-2.837
		c0.043-0.702,0.08-1.413,0.08-2.108c0-1.095-0.105-2.147-0.489-3.045l-0.626-1.438c0,0-0.823,1.707-0.853,1.77
		c-6.613,7.429-11.028,9.461-22.681,12.527l-0.543,0.139c0,0,0.186,15.506,0.196,16.744c-0.731,0.057-1.875,0.148-1.875,0.148
		c-3.602,0.313-8.915,0.737-11.747-0.317c-0.043-1.006-1.798-41.976-1.84-42.937c0.792-0.033,4.307-0.182,4.307-0.182
		c8.827-0.396,19.811-0.893,26.875,1.387c2.092,0.678,3.428,1.915,4.844,3.227c0.859,0.794,1.743,1.613,2.809,2.304l1.194,0.775
		l-0.154-2.353c-0.048-0.703-0.129-1.873-0.129-2.947c0-1.026,0.09-1.919,0.337-2.306C64.12,97.707,73.833,97.737,77.081,98.341"/>
	<path fill="#261C02" d="M37.761,104.781l-0.697,0.031l0.144,12.133l0.731-0.021c2.713-0.082,5.346-1.363,6.875-3.342
		c1.293-1.683,1.714-3.699,1.223-5.826l-0.034-0.146l-0.087-0.12C44.089,105.025,41.332,104.626,37.761,104.781 M44.659,108.243
		c0.082,0.405,0.143,0.805,0.143,1.198c0,1.183-0.382,2.295-1.131,3.268c-1.132,1.465-3.021,2.435-5.049,2.682
		c-0.013-1.285-0.095-8.054-0.105-9.191C41.344,106.132,43.302,106.52,44.659,108.243"/>
	<path fill="#261C02" d="M84.672,96.619l-5.557,0.172l0.018,0.714l1.226,45.336l14.988,0.318l0.782-1.196
		c0,0,0.044-11.75,0.047-13.2c2.227,3.085,6.838,11.315,7.44,13.104l0.09,0.257l0.236,0.136c2.544,1.461,8.792,1.166,13.818,0.933
		l3.433-0.146c0,0,0.011-0.697,0.011-0.699c0-2.36-3.017-7.271-7.268-13.939c-1.739-2.721-3.347-5.262-4.182-6.912
		c1.307-1.178,2.846-2.044,4.502-2.911c2.549-1.34,5.18-2.725,6.74-5.499c0.72-1.284,1.034-2.571,1.034-3.819
		c0-3.664-2.729-6.997-5.991-8.942C108.474,95.825,96.372,96.232,84.672,96.619 M84.715,98.054
		c11.498-0.383,23.386-0.777,30.586,3.506c2.268,1.347,5.313,4.192,5.313,7.659c0,1.011-0.258,2.073-0.871,3.167
		c-1.346,2.402-3.682,3.629-6.154,4.927c-1.83,0.963-3.722,1.957-5.255,3.483l-0.35,0.351l0.206,0.452
		c0.781,1.695,2.516,4.423,4.534,7.581c2.87,4.495,6.342,9.962,6.925,12.493c-0.812,0.033-1.952,0.085-1.952,0.085
		c-4.485,0.207-10.553,0.48-12.866-0.679c-0.971-2.343-7.306-14.066-9.088-14.811l-0.991-0.419c0,0-0.057,15.274-0.057,15.677
		c-0.05,0.071-0.057,0.085-0.122,0.177c-0.64-0.012-11.625-0.245-12.815-0.272c-0.039-1.314-1.142-42.057-1.169-43.249
		C81.629,98.149,84.715,98.054,84.715,98.054"/>
	<path fill="#261C02" d="M95.408,105.25l-0.668,0.032l-0.114,12.572l1.543-0.012l0.106-0.045c4.575-1.632,7.759-5.585,7.112-8.807
		C103.142,107.746,101.865,104.904,95.408,105.25 M101.98,109.272c0.042,0.172,0.054,0.349,0.054,0.533
		c0,2.131-2.277,5.069-5.958,6.501c0.003-0.998,0.074-8.511,0.081-9.646C99.524,106.602,101.634,107.537,101.98,109.272"/>
	<path fill="#261C02" d="M141.697,96.512l-7.727,1.458c-6.304,2.382-11.685,7.8-13.833,13.837
		c-2.821,7.948-1.046,17.074,4.647,23.816c5.253,6.222,12.897,9.149,20.443,7.837c7.927-1.382,15.269-6.987,18.699-14.278
		c3.1-6.582,2.732-13.852-1.044-20.481c-4.688-8.206-11.486-10.753-20.938-12.194l-0.123-0.021L141.697,96.512z M140.624,98.174
		c0,0,1.004-0.188,1.215-0.229c10.587,1.631,15.958,4.749,19.79,11.464c3.535,6.217,3.898,13.014,1.001,19.158
		c-3.242,6.884-10.166,12.175-17.652,13.478c-7.037,1.227-14.175-1.519-19.096-7.35c-3.681-4.362-5.63-9.773-5.63-15.162
		c0-2.454,0.405-4.903,1.238-7.245c2.01-5.658,7.06-10.737,12.866-12.945C134.409,99.347,140.624,98.174,140.624,98.174"/>
	<path fill="#261C02" d="M140.748,107.059l-0.33,0.151c-3.34,1.53-6.216,2.852-7.284,7.016c-0.812,3.179,0.233,6.699,2.73,9.198
		c2.405,2.402,5.595,3.302,8.755,2.487h0.002c4.95-1.289,7.815-5.083,7.3-9.668c-0.506-4.458-4.393-9.064-10.854-9.253l-0.17-0.004
		L140.748,107.059z M136.882,122.406c-1.666-1.658-2.584-3.841-2.584-6c0-0.612,0.073-1.228,0.233-1.825
		c0.885-3.502,3.235-4.576,6.482-6.066c0,0,0.077-0.038,0.155-0.071c5.553,0.226,8.893,4.154,9.323,7.96
		c0.035,0.28,0.054,0.567,0.054,0.851c0,2.866-1.628,6.062-6.285,7.268C141.606,125.211,138.916,124.441,136.882,122.406"/>
	<path fill-rule="evenodd" clip-rule="evenodd" fill="#261C02" d="M187.386,23.467l-0.078,0.003l-8.188,1.004
		c-3.018,0.851-9.53,4.611-11.421,9.551c-0.339,0.886-0.508,1.768-0.508,2.62c0,1.256,0.364,2.469,1.098,3.629
		c1.26,2,3.845,3.661,6.573,5.416c3.953,2.538,8.031,5.147,8.031,8.805c0,0.3-0.058,0.615-0.115,0.929
		c-5.049,3.22-13.613-0.019-16.162-1.119l-1.074-0.471l1.201,16.956l0.518,0.121c9.881,2.393,28.616,3.276,37.438-2.4
		c2.679-1.729,4.298-3.955,4.812-6.617c1.387-7.258-4.057-11.065-8.422-14.124c-1.282-0.897-2.493-1.744-3.37-2.576l-0.67-0.605
		c-2.049-1.814-3.639-3.501-2.46-5.801c0.83-1.829,2.34-1.926,4.932-1.947c1.187-0.011,2.416-0.02,3.668-0.293l0.453-0.099
		l2.175-10.782l-4.374-0.729C196.941,24.159,192.311,23.363,187.386,23.467 M201.198,26.351c0,0,1.979,0.327,2.923,0.489
		c-0.24,1.169-1.518,7.48-1.688,8.34c-0.966,0.16-1.959,0.214-2.924,0.226c-2.453,0.02-4.972,0.039-6.22,2.755
		c-0.386,0.765-0.546,1.486-0.546,2.156c0,2.366,2.016,4.166,3.353,5.346l0.632,0.573c0.957,0.903,2.209,1.78,3.53,2.71
		c3.793,2.649,8.033,5.617,8.033,10.738c0,0.61-0.069,1.261-0.197,1.938c-0.433,2.264-1.834,4.175-4.171,5.679
		c-7.975,5.136-25.708,4.646-35.823,2.321c-0.036-0.49-0.826-11.66-0.967-13.575c3.559,1.408,11.633,3.966,16.718,0.445l0.223-0.16
		l0.058-0.262c0.137-0.561,0.2-1.097,0.2-1.616c0-4.398-4.581-7.343-8.687-9.973c-2.605-1.67-5.055-3.241-6.147-4.972
		c-0.575-0.921-0.862-1.882-0.862-2.875c0-0.688,0.133-1.385,0.403-2.101c1.635-4.266,7.524-7.85,10.364-8.66
		c0.027,0.01,7.822-0.948,8.038-0.977C192.221,24.803,196.787,25.59,201.198,26.351"/>
	<path fill-rule="evenodd" clip-rule="evenodd" fill="#261C02" d="M275.893,23.902c0,0-7.411,12.003-7.682,12.447
		c-0.055-1.78-0.327-10.688-0.327-10.688l-0.519-0.142c-4.103-1.116-11.372-0.931-15.595-0.06l-0.582,0.121l0.295,45.024
		l0.426,0.191c2.878,1.28,9.185,0.821,13.794,0.488l2.938-0.207v-0.675c0,0-0.102-7.935-0.134-11.663
		c1.585,3.513,5.555,12.307,5.555,12.307l19.095,0.259l0.087-0.629c0.008-0.047,0.008-0.089,0.008-0.148
		c0-3.153-11.031-20.975-13.414-24.084c0.718-2.579,4.49-7.25,7.571-11.039c1.752-2.183,3.431-4.238,4.34-5.671l0.179-0.286
		l-0.105-0.318c-0.692-2.203-3.857-2.785-6.653-3.3l-2.291-0.494c-0.012,0-6.698-1.894-6.698-1.894L275.893,23.902z M267.884,38.918
		l0.624-0.324c0,0,7.797-12.631,8.322-13.476c0.866,0.248,5.647,1.595,5.647,1.595l2.433,0.527c2.032,0.375,4.675,0.903,5.36,2.105
		c-0.904,1.344-2.391,3.186-3.98,5.156c-3.452,4.256-7.366,9.079-7.953,11.934l-0.07,0.349l0.23,0.264
		c2.174,2.517,11.997,18.942,13.202,22.803c-1.49-0.022-15.875-0.214-16.701-0.227c-0.36-0.785-6.559-14.522-6.559-14.522
		l-1.396,0.017l-0.005,0.715c0,0,0.142,12.678,0.157,13.909c-0.671,0.046-1.601,0.108-1.601,0.108
		c-3.997,0.292-9.922,0.708-12.685-0.234c-0.007-1-0.277-41.84-0.277-42.833c3.954-0.721,10.046-0.865,13.845,0.031
		c0.021,0.952,0.391,12.628,0.391,12.628L267.884,38.918z"/>
	<path fill-rule="evenodd" clip-rule="evenodd" fill="#261C02" d="M213.791,24.927l-4.515,0.383l-0.01,0.67l0.75,44.726l0.505,0.151
		c2.516,0.743,7.012,0.576,11.371,0.419l3.893-0.124l0.023-0.943c0,0,0.224-13.953,0.247-15.223
		c0.987-0.016,4.402-0.056,5.422-0.069c0.017,1.312,0.186,16.167,0.186,16.167l17.823,0.036l0.647-45.47l-0.532-0.15
		c-3.552-0.989-7.228-0.494-9.858,0.558c0.137-0.297,0.313-0.659,0.313-0.659l-8.452-0.198c0,0-0.242,15.434-0.257,16.664
		c-0.452,0.001-4.123,0.045-5.19,0.06c0-1.183,0.035-16.462,0.035-16.462l-0.534-0.141
		C221.269,24.178,217.463,24.559,213.791,24.927 M213.932,26.354c3.55-0.356,6.925-0.655,10.819,0.255
		c0,1.043-0.032,16.77-0.032,16.77l8.037-0.095c0,0,0.243-15.525,0.264-16.614c0.938,0.019,3.481,0.079,4.765,0.111
		c-0.083,0.175-0.683,1.408-0.683,1.408l1.572-0.017l0.172-0.1c2.144-1.279,6.071-2.136,9.835-1.26
		c-0.021,1.213-0.586,41.625-0.607,42.875c-1.239-0.003-13.751-0.029-14.987-0.035c-0.021-1.294-0.188-16.183-0.188-16.183
		l-8.254,0.097c0,0-0.255,15.38-0.267,16.192c-0.853,0.026-2.541,0.083-2.541,0.083c-3.799,0.136-8.002,0.265-10.398-0.278
		c-0.023-1.125-0.71-41.674-0.729-42.936C211.643,26.547,213.932,26.354,213.932,26.354"/>
	<path fill-rule="evenodd" clip-rule="evenodd" fill="#261C02" d="M291.754,25.589c-0.017,0.15-0.026,0.315-0.026,0.495
		c0,2.875,2.857,8.678,6.839,16.431c1.729,3.36,3.34,6.517,3.952,8.236c-0.012,0.294-0.702,20.025-0.702,20.025l0.554,0.151
		c3.257,0.903,7.972,0.665,12.128,0.457l4.314-0.182l0.16-0.497c0.891-3.001,0.457-6.112,0.04-9.122
		c-0.407-2.936-0.831-5.968-0.014-8.892c1.066-3.862,2.911-7.545,4.854-11.449c2.364-4.744,4.813-9.64,5.786-14.938l0.012-0.073
		l-0.021-1.017l-0.697,0.011l-15.863-0.05c0,0-1.905,9.782-2.129,10.899c-0.469-1.127-0.853-2.394-1.181-3.717
		c-0.666-2.679-1.349-5.448-3.167-6.926l-0.188-0.157l-14.561-0.316L291.754,25.589z M303.955,50.651l0.005-0.131l-0.04-0.123
		c-0.617-1.799-2.221-4.921-4.077-8.538c-2.75-5.354-6.412-12.509-6.643-15.438c1.305,0.029,12.066,0.257,12.622,0.275
		c1.338,1.224,1.96,3.642,2.541,6c0.514,2.088,1.051,4.239,2.122,5.725l0.222,0.305l1.187-0.022l0.108-0.567
		c0,0,2.056-10.521,2.249-11.52c1.008,0,12.524,0.036,13.841,0.043c-0.978,4.785-3.276,9.438-5.521,13.941
		c-1.898,3.792-3.855,7.713-4.964,11.71c-0.375,1.367-0.514,2.724-0.514,4.072c0,1.826,0.252,3.628,0.494,5.397
		c0.248,1.723,0.476,3.391,0.476,5.015c0,1.026-0.155,2.026-0.402,3.018c-0.857,0.036-3.235,0.136-3.235,0.136
		c-3.834,0.195-8.104,0.376-11.133-0.312C303.338,68.47,303.955,50.651,303.955,50.651"/>
	<path fill="#261C02" d="M61.348,24.988l-0.146,0.064l-0.106,0.119c-0.583,0.635-0.759,1.868-0.759,3.422
		c0,0.698,0.057,1.506,0.106,2.306c-0.461-0.384-0.951-0.731-1.409-1.157c-1.471-1.36-2.988-2.765-5.377-3.537
		c-7.317-2.361-18.445-1.858-27.383-1.452l-5.062,0.21l-0.575,0.579l-0.061,0.386l1.902,44.398l0.407,0.182
		c3.061,1.382,8.724,0.896,12.855,0.539l3.192-0.248l0.007-0.67c0,0-0.186-15.346-0.193-16.307
		c11.025-2.929,15.865-5.185,22.249-12.174c0.036,0.36,0.065,0.734,0.065,1.128c0,0.657-0.041,1.342-0.083,2.024l-0.035,3.03
		c-0.001-0.049,0.25,7.682,0.25,7.682l0.476,14.81l0.408,0.183c2.916,1.322,12.622,0.771,15.441,0.333l0.608-0.091l0.404-45.607
		l-0.539-0.14C75.112,24.241,63.501,24.1,61.348,24.988 M77.081,26.294c-0.003,1.166-0.368,41.985-0.375,43.198
		c-3.318,0.412-10.929,0.711-13.635-0.176c-0.031-0.951-0.695-21.591-0.695-21.6c0-0.251,0.035-2.835,0.035-2.835
		c0.043-0.701,0.08-1.413,0.08-2.106c0-1.104-0.105-2.152-0.489-3.049l-0.626-1.433c0,0-0.823,1.7-0.853,1.767
		c-6.613,7.434-11.028,9.461-22.681,12.522l-0.543,0.142c0,0,0.186,15.609,0.196,16.748c-0.731,0.057-1.875,0.147-1.875,0.147
		c-3.602,0.309-8.915,0.735-11.747-0.321c-0.043-1.004-1.798-41.972-1.84-42.931c0.792-0.035,4.307-0.183,4.307-0.183
		c8.827-0.399,19.811-0.897,26.875,1.387c2.092,0.677,3.428,1.915,4.844,3.223c0.859,0.797,1.743,1.616,2.809,2.303l1.194,0.778
		l-0.154-2.355c-0.048-0.703-0.129-1.867-0.129-2.947c0-1.025,0.09-1.912,0.337-2.302C64.12,25.662,73.833,25.691,77.081,26.294"/>
	<path fill="#261C02" d="M37.761,32.735l-0.697,0.03l0.144,12.137l0.731-0.025c2.713-0.078,5.346-1.361,6.875-3.345
		c1.293-1.683,1.714-3.695,1.223-5.824l-0.034-0.146l-0.087-0.121C44.079,32.976,41.332,32.577,37.761,32.735 M44.659,36.197
		c0.082,0.405,0.143,0.801,0.143,1.197c0,1.186-0.382,2.295-1.131,3.264c-1.132,1.471-3.021,2.436-5.049,2.683
		c-0.013-1.285-0.095-8.054-0.105-9.187C41.286,34.089,43.309,34.483,44.659,36.197"/>
	<path fill="#261C02" d="M84.675,24.574l-5.56,0.17l0.019,0.716l1.226,45.331l14.993,0.321l0.729-1.14l0.047-0.278
		c0,0,0.045-11.53,0.047-12.975c2.228,3.081,6.839,11.317,7.44,13.099l0.089,0.262l0.236,0.132
		c2.544,1.453,8.791,1.166,13.812,0.933l3.44-0.145l0.01-0.699c0-2.368-3.017-7.274-7.267-13.941
		c-1.74-2.724-3.348-5.26-4.181-6.907c1.306-1.181,2.845-2.048,4.502-2.918c2.549-1.341,5.18-2.724,6.739-5.499
		c0.721-1.283,1.033-2.568,1.033-3.814c0-3.67-2.728-7.002-5.991-8.945C108.473,23.777,96.374,24.186,84.675,24.574 M84.72,26.006
		c11.5-0.382,23.381-0.781,30.582,3.503c2.267,1.352,5.314,4.194,5.314,7.661c0,1.007-0.259,2.074-0.871,3.167
		c-1.347,2.406-3.682,3.631-6.154,4.926c-1.831,0.962-3.723,1.96-5.256,3.484l-0.349,0.35l0.205,0.455
		c0.781,1.697,2.515,4.42,4.53,7.577c2.867,4.497,6.347,9.965,6.929,12.498c-0.812,0.034-1.962,0.086-1.962,0.086
		c-4.479,0.208-10.553,0.478-12.855-0.678c-0.971-2.346-7.307-14.067-9.088-14.817l-0.993-0.411c0,0-0.056,15.266-0.056,15.674
		c-0.034,0.049-0.056,0.089-0.122,0.178c-0.662-0.016-11.64-0.248-12.813-0.272c-0.04-1.314-1.143-42.079-1.169-43.253
		C81.629,26.103,84.72,26.006,84.72,26.006"/>
	<path fill="#261C02" d="M95.408,33.199l-0.668,0.035l-0.114,12.573l1.543-0.012l0.106-0.041c4.575-1.636,7.759-5.588,7.112-8.812
		C103.142,35.706,101.865,32.854,95.408,33.199 M101.98,37.227c0.042,0.169,0.054,0.35,0.054,0.533c0,2.128-2.277,5.068-5.958,6.501
		c0.003-1.003,0.074-8.509,0.081-9.647C99.524,34.56,101.634,35.49,101.98,37.227"/>
	<path fill="#261C02" d="M141.697,24.463l-7.725,1.458c-6.304,2.384-11.686,7.802-13.834,13.836
		c-2.82,7.949-1.047,17.074,4.643,23.815c5.254,6.229,12.902,9.158,20.447,7.842c7.926-1.382,15.27-6.987,18.698-14.281
		c3.103-6.577,2.734-13.849-1.043-20.479c-4.688-8.209-11.486-10.752-20.938-12.198l-0.123-0.016L141.697,24.463z M141.839,25.9
		c10.586,1.629,15.958,4.745,19.792,11.467c1.956,3.432,2.94,7.044,2.94,10.625c0,2.901-0.646,5.784-1.94,8.531
		c-3.243,6.883-10.172,12.175-17.652,13.475c-7.037,1.232-14.176-1.519-19.097-7.351c-3.682-4.36-5.63-9.775-5.63-15.154
		c0-2.459,0.406-4.912,1.239-7.255c2.009-5.655,7.059-10.735,12.864-12.941C134.403,27.299,141.152,26.025,141.839,25.9"/>
	<path fill="#261C02" d="M140.748,35.01l-0.339,0.154c-3.331,1.528-6.207,2.85-7.275,7.015c-0.812,3.175,0.233,6.701,2.73,9.199
		c2.405,2.402,5.595,3.307,8.755,2.487h0.002c4.95-1.287,7.815-5.081,7.3-9.67c-0.506-4.458-4.393-9.063-10.854-9.25l-0.17-0.004
		L140.748,35.01z M136.882,50.364c-1.666-1.662-2.584-3.845-2.584-6.003c0-0.615,0.073-1.225,0.233-1.827
		c0.885-3.5,3.235-4.576,6.476-6.068c0,0,0.083-0.035,0.161-0.069c5.553,0.227,8.893,4.156,9.323,7.962
		c0.035,0.277,0.054,0.563,0.054,0.85c0,2.863-1.628,6.057-6.285,7.267C141.606,53.164,138.916,52.392,136.882,50.364"/>
	<polygon fill="#261C02" points="111.047,169.978 123.831,169.978 123.831,173.529 116.578,173.529 116.578,175.623 123.51,175.623 
		123.51,179.167 116.578,179.167 116.578,181.176 123.981,181.176 123.981,184.723 111.047,184.723 	"/>
	<path fill="#261C02" d="M164.269,180.076c1.278,0,2.326,1.045,2.326,2.326c0,1.279-1.048,2.32-2.326,2.32
		c-1.281,0-2.323-1.041-2.323-2.32C161.946,181.121,162.988,180.076,164.269,180.076"/>
	<path fill="#261C02" d="M142.051,173.762c-1.266-0.44-2.766-0.739-4.37-0.739c-0.891,0-2.432,0.021-2.432,0.973
		c0,1.922,7.752,0.106,7.752,5.784c0,3.954-3.91,4.943-7.179,4.943c-2.179,0-3.972-0.208-6.087-0.692v-3.827
		c1.521,0.636,3.381,0.973,5.074,0.973c1.328,0,2.536-0.275,2.536-1.011c0-1.989-7.757-0.188-7.757-5.915
		c0-4.061,4.226-4.778,7.586-4.778c1.581,0,3.333,0.192,4.876,0.506V173.762z"/>
	<polygon fill="#261C02" points="173.218,173.675 178.776,169.978 183.317,169.978 183.317,184.723 177.993,184.723 
		177.993,175.156 174.722,177.521 	"/>
	<path fill="#261C02" d="M191.208,180.924c1.059,0.277,1.839,0.506,3.676,0.506c1.627,0,3.439-0.678,3.422-2.932
		c-0.66,0.525-1.737,0.883-3.319,0.883c-2.619,0-5.129-1.648-5.129-4.712c0-3.634,3.298-5.197,6.522-5.197
		c4.336,0,7.249,3.021,7.249,7.312c0,5.217-3.358,7.941-7.923,7.941c-2.238,0-3.505-0.19-4.498-0.4V180.924z M196.532,176.591
		c1.187,0,1.773-0.801,1.773-2.047c0-1.038-0.587-1.902-1.773-1.902c-1.145,0-1.82,0.864-1.82,2.027
		C194.712,175.79,195.388,176.591,196.532,176.591"/>
	<path fill="#261C02" d="M209.884,180.924c1.055,0.277,1.836,0.506,3.674,0.506c1.628,0,3.443-0.678,3.422-2.932
		c-0.652,0.525-1.732,0.883-3.316,0.883c-2.617,0-5.131-1.648-5.131-4.712c0-3.634,3.293-5.197,6.523-5.197
		c4.331,0,7.249,3.021,7.249,7.312c0,5.217-3.36,7.941-7.93,7.941c-2.232,0-3.5-0.19-4.491-0.4V180.924z M215.209,176.591
		c1.18,0,1.771-0.801,1.771-2.047c0-1.038-0.591-1.902-1.771-1.902c-1.148,0-1.821,0.864-1.821,2.027
		C213.388,175.79,214.061,176.591,215.209,176.591"/>
	<path fill="#261C02" d="M238.952,181.176v3.547h-11.664v-4.138c0.93-0.464,2.894-1.461,4.31-2.412
		c0.97-0.631,2.03-1.477,2.03-2.722c0-1.521-1.376-2.05-2.746-2.05c-1.119,0-2.264,0.188-3.295,0.634v-3.846
		c1.54-0.271,3.083-0.464,4.665-0.464c3.212,0,6.7,1.036,6.7,4.84c0,3.36-3.398,5.237-6.043,6.568v0.042H238.952z"/>
	<polygon fill="#261C02" points="162.14,169.978 157.248,169.978 151.586,169.978 146.695,169.978 146.695,173.232 151.586,173.232 
		151.586,184.723 157.248,184.723 157.248,173.232 162.14,173.232 	"/>
</g>
</svg>
